<svg xmlns="http://www.w3.org/2000/svg" viewBox="0 0 1135 813" width="1135" height="813">
	<defs>
		<linearGradient id="grd1" gradientUnits="userSpaceOnUse"  x1="556.4" y1="800.11" x2="556.4" y2="326.35">
			<stop offset="0" stop-color="#808080" stop-opacity="0.25" />
			<stop offset="0.54" stop-color="#808080" stop-opacity="0.12" />
			<stop offset="1" stop-color="#808080" stop-opacity="0.1" />
		</linearGradient>
		<linearGradient id="grd2" gradientUnits="userSpaceOnUse"  x1="17980.859" y1="28061.5" x2="18726.691" y2="28061.5">
			<stop offset="0" stop-color="#808080" stop-opacity="0.25" />
			<stop offset="0.54" stop-color="#808080" stop-opacity="0.12" />
			<stop offset="1" stop-color="#808080" stop-opacity="0.1" />
		</linearGradient>
	</defs>
	<style>
		tspan { white-space:pre }
		.shp0 { opacity: 0.102;fill: #ef9d10 } 
		.shp1 { fill: #ef9d10 } 
		.shp2 { opacity: 0.2;fill: #000000 } 
		.shp3 { fill: #636780 } 
		.shp4 { opacity: 0.4;fill: #000000 } 
		.shp5 { opacity: 0.2;fill: #ffffff } 
		.shp6 { opacity: 0.102;fill: #ffffff } 
		.shp7 { opacity: 0.102;fill: #000000 } 
		.shp8 { fill: #dce0ed } 
		.shp9 { fill: #f0f0f4 } 
		.shp10 { fill: none } 
		.shp11 { fill: #000000 } 
		.shp12 { fill: #ffffff } 
		.shp13 { fill: #a8a8a8 } 
		.shp14 { fill: url(#grd1) } 
		.shp15 { fill: url(#grd2) } 
	</style>
	<path id="Layer" class="shp0" d="M600.04 812.32C505.65 812.32 429.35 803.88 429.35 793.44C429.35 783 505.65 774.56 600.04 774.56C694.43 774.56 770.73 783 770.73 793.44C770.73 803.88 694.43 812.32 600.04 812.32Z" />
	<path id="Layer" class="shp0" d="M1079.17 551.22C1052.61 606.03 998.65 642.68 942.75 666.85C867.48 699.4 784.59 712.31 702.84 706.85C688.51 705.9 674.22 704.38 659.99 702.28C647.64 700.48 635.36 698.24 623.17 695.59C610.98 692.94 598.89 689.86 586.91 686.37C574.93 682.88 563.07 678.97 551.37 674.66C539.66 670.35 528.1 665.63 516.72 660.52C503.59 654.59 490.69 648.13 478.02 641.16C472.75 638.24 467.53 635.22 462.37 632.11C457.21 629 452.11 625.79 447.07 622.49C442.02 619.2 437.04 615.81 432.12 612.33C427.2 608.85 422.35 605.28 417.56 601.62C412.74 597.94 407.99 594.17 403.3 590.3C400.05 587.62 396.83 584.88 393.56 582.22C386.66 576.61 379.56 571.28 371.64 567.29C371.04 566.99 370.44 566.7 369.84 566.41C369.23 566.12 368.62 565.85 368.01 565.58C367.4 565.31 366.78 565.04 366.17 564.79C365.55 564.53 364.92 564.29 364.3 564.05C339.22 554.51 310.3 558.11 284.19 565.55C264.35 571.16 245.02 578.91 225.15 584.44C222.94 585.07 220.73 585.67 218.5 586.22C216.28 586.78 214.04 587.3 211.8 587.77C209.55 588.25 207.3 588.69 205.04 589.09C202.78 589.48 200.51 589.84 198.24 590.16C193.18 590.8 188.09 591.18 182.99 591.28C177.89 591.38 172.79 591.21 167.71 590.77C162.63 590.33 157.58 589.61 152.57 588.63C147.57 587.65 142.62 586.4 137.75 584.89L136.08 584.37C133.28 583.49 130.5 582.53 127.75 581.48L126.08 580.84C123.41 579.81 120.8 578.71 118.25 577.53L116.58 576.77C113.91 575.53 111.3 574.22 108.75 572.84C107.83 572.36 106.92 571.84 106.02 571.35C102.39 569.33 98.85 567.16 95.39 564.87C91.93 562.57 88.55 560.15 85.28 557.6C82 555.05 78.82 552.37 75.75 549.58C72.68 546.79 69.71 543.88 66.86 540.86C66.53 540.53 66.22 540.19 65.86 539.86C64.27 538.14 62.71 536.39 61.2 534.6C60.64 533.94 60.08 533.28 59.53 532.6C57.74 530.41 56.01 528.17 54.34 525.89C54.09 525.56 53.85 525.22 53.61 524.89C51.9 522.53 50.27 520.12 48.71 517.66C47.15 515.2 45.66 512.7 44.25 510.15C42.84 507.6 41.51 505.01 40.26 502.38C39.01 499.76 37.83 497.09 36.74 494.39C36.6 494.06 36.47 493.72 36.35 493.39C35.02 489.96 33.8 486.47 32.7 482.92C32.25 481.44 31.82 479.92 31.44 478.44C31.31 478 31.19 477.55 31.08 477.11C25.61 455.39 25.02 432.8 25.02 410.34C25.02 407.72 25.02 405.1 25.02 402.49C25.18 366.16 25.74 329.21 31.1 293.38C31.1 293.13 31.17 292.88 31.21 292.64C31.66 289.63 32.15 286.62 32.68 283.61C33.21 280.61 33.77 277.62 34.38 274.63C34.99 271.65 35.64 268.67 36.33 265.7C37.02 262.73 37.75 259.77 38.52 256.82C39.32 253.73 40.19 250.65 41.1 247.58C42.02 244.52 42.99 241.47 44.02 238.45C45.04 235.42 46.12 232.41 47.26 229.42C48.4 226.43 49.59 223.47 50.83 220.52C63.16 191.52 81.09 165.13 101 140.67C151.1 79.16 216.87 27.45 293.85 8.16C376.8 -12.67 468.99 7.29 535.9 60.56C556.3 76.8 574.63 96.03 597.54 108.48C617.54 119.32 640.95 123.81 662.37 115.28C680.07 108.28 691.59 104.73 711.47 105.8C721.74 106.38 731.99 107.34 742.18 108.69C752.38 110.04 762.53 111.77 772.6 113.87C782.66 115.98 792.65 118.47 802.53 121.32C812.42 124.18 822.19 127.4 831.83 130.99C833.39 131.56 834.95 132.15 836.5 132.74C937.21 171.29 1023.8 247.84 1068.78 346.21C1069.97 348.81 1071.13 351.43 1072.25 354.07C1099.08 416.69 1108.76 490.16 1079.17 551.22Z" />
	<path id="Layer" class="shp0" d="M225.15 205.28L225.15 584.44C222.94 585.07 220.73 585.67 218.5 586.22C216.28 586.78 214.04 587.3 211.8 587.77C209.55 588.25 207.3 588.69 205.04 589.09C202.78 589.48 200.51 589.84 198.24 590.16C193.18 590.8 188.09 591.18 182.99 591.28C177.89 591.38 172.79 591.21 167.71 590.77C162.63 590.33 157.58 589.61 152.57 588.63C147.57 587.65 142.62 586.4 137.75 584.89L136.08 584.37C133.28 583.49 130.5 582.53 127.75 581.48L126.08 580.84C123.41 579.81 120.8 578.71 118.25 577.53L116.58 576.77C113.91 575.53 111.3 574.22 108.75 572.84C107.83 572.36 106.92 571.84 106.02 571.35C102.39 569.33 98.85 567.16 95.39 564.87C91.93 562.57 88.55 560.15 85.28 557.6C82 555.05 78.82 552.37 75.75 549.58C72.68 546.79 69.71 543.88 66.86 540.86C66.53 540.53 66.22 540.19 65.86 539.86C64.27 538.14 62.71 536.39 61.2 534.6C60.64 533.94 60.08 533.28 59.53 532.6C57.74 530.41 56.01 528.17 54.34 525.89C54.09 525.56 53.85 525.22 53.61 524.89C51.9 522.53 50.27 520.12 48.71 517.66C47.15 515.2 45.66 512.7 44.25 510.15C42.84 507.6 41.51 505.01 40.26 502.38C39.01 499.76 37.83 497.09 36.74 494.39C36.6 494.06 36.47 493.72 36.35 493.39C35.02 489.96 33.8 486.47 32.7 482.92C32.25 481.44 31.82 479.92 31.44 478.44C31.31 478 31.19 477.55 31.08 477.11C25.61 455.39 25.02 432.8 25.02 410.34C25.02 407.72 25.02 405.1 25.02 402.49C25.18 366.16 25.74 329.21 31.1 293.38C31.1 293.13 31.17 292.88 31.21 292.64C31.66 289.63 32.15 286.62 32.68 283.61C33.21 280.61 33.77 277.62 34.38 274.63C34.99 271.65 35.64 268.67 36.33 265.7C37.02 262.73 37.75 259.77 38.52 256.82L140.61 256.82L140.61 205.28L161.02 205.28L161.02 163.89L204.84 163.89L204.84 205.28L225.15 205.28Z" />
	<path id="Layer" class="shp0" d="M1079.17 551.22C1052.61 606.03 998.65 642.68 942.75 666.85C867.48 699.4 784.59 712.31 702.84 706.85C688.51 705.9 674.22 704.38 659.99 702.28C647.64 700.48 635.36 698.24 623.17 695.59C610.98 692.94 598.89 689.86 586.91 686.37C574.93 682.88 563.07 678.97 551.37 674.66C539.66 670.35 528.1 665.63 516.72 660.52C503.59 654.59 490.69 648.13 478.02 641.16C472.75 638.24 467.53 635.22 462.37 632.11C457.21 629 452.11 625.79 447.07 622.49C442.02 619.2 437.04 615.81 432.12 612.33C427.2 608.85 422.35 605.28 417.56 601.62C412.74 597.94 407.99 594.17 403.3 590.3C400.05 587.62 396.83 584.88 393.56 582.22C386.66 576.61 379.56 571.28 371.64 567.29C371.04 566.99 370.44 566.7 369.84 566.41C369.23 566.12 368.62 565.85 368.01 565.58C367.4 565.31 366.78 565.04 366.17 564.79C365.55 564.53 364.92 564.29 364.3 564.05L364.3 408.89L549.89 408.89L549.89 443.42L631.34 443.42L631.34 190.84L727.21 190.84L727.21 291.84L774.63 291.84L774.63 232.04L813.81 232.04L813.81 168.16L831.81 168.16L831.81 130.94C833.37 131.51 834.93 132.1 836.48 132.69L836.48 168.16L854.02 168.16L854.02 232.08L893.19 232.08L893.19 291.88L950.92 291.88L950.92 519.71L1042.68 519.71L1042.68 354.02L1072.25 354.02C1099.08 416.69 1108.76 490.16 1079.17 551.22Z" />
	<path id="Layer" class="shp0" d="M659.99 228.84L702.84 228.84L702.84 271.69L659.99 271.69L659.99 228.84Z" />
	<path id="Layer" class="shp0" d="M659.99 317.67L702.84 317.67L702.84 360.52L659.99 360.52L659.99 317.67Z" />
	<path id="Layer" class="shp0" d="M659.99 406.49L702.84 406.49L702.84 449.34L659.99 449.34L659.99 406.49Z" />
	<path id="Layer" class="shp0" d="M659.99 495.32L702.84 495.32L702.84 538.17L659.99 538.17L659.99 495.32Z" />
	<path id="Layer" class="shp0" d="M659.99 584.15L702.84 584.15L702.84 627L659.99 627L659.99 584.15Z" />
	<path id="Layer" class="shp0" d="M702.84 672.97L702.84 706.81C688.51 705.86 674.22 704.34 659.99 702.24L659.99 672.97L702.84 672.97Z" />
	<path id="Layer" class="shp0" d="M378.43 464.27L528.42 464.27L528.42 483.68L378.43 483.68L378.43 464.27Z" />
	<path id="Layer" class="shp0" d="M378.43 523.21L528.42 523.21L528.42 542.62L378.43 542.62L378.43 523.21Z" />
	<path id="Layer" class="shp0" d="M528.42 582.16L528.42 601.56L417.58 601.56C412.76 597.88 408.01 594.11 403.32 590.24C400.07 587.56 396.85 584.82 393.58 582.16L528.42 582.16Z" />
	<path id="Layer" class="shp0" d="M528.42 641.16L528.42 660.57L516.72 660.57C503.59 654.6 490.69 648.13 478.02 641.16L528.42 641.16Z" />
	<path id="Layer" class="shp0" d="M774.41 344.87L802.3 344.87L802.3 372.76L774.41 372.76L774.41 344.87Z" />
	<path id="Layer" class="shp0" d="M170.41 214.89L198.3 214.89L198.3 242.78L170.41 242.78L170.41 214.89Z" />
	<path id="Layer" class="shp0" d="M170.41 279.69L198.3 279.69L198.3 307.58L170.41 307.58L170.41 279.69Z" />
	<path id="Layer" class="shp0" d="M170.41 344.49L198.3 344.49L198.3 372.38L170.41 372.38L170.41 344.49Z" />
	<path id="Layer" class="shp0" d="M170.41 409.28L198.3 409.28L198.3 437.17L170.41 437.17L170.41 409.28Z" />
	<path id="Layer" class="shp0" d="M170.41 474.08L198.3 474.08L198.3 501.97L170.41 501.97L170.41 474.08Z" />
	<path id="Layer" class="shp0" d="M170.41 538.88L198.3 538.88L198.3 566.77L170.41 566.77L170.41 538.88Z" />
	<path id="Layer" class="shp0" d="M880.91 344.87L908.8 344.87L908.8 372.76L880.91 372.76L880.91 344.87Z" />
	<path id="Layer" class="shp0" d="M774.41 413.68L802.3 413.68L802.3 441.57L774.41 441.57L774.41 413.68Z" />
	<path id="Layer" class="shp0" d="M880.91 413.68L908.8 413.68L908.8 441.57L880.91 441.57L880.91 413.68Z" />
	<path id="Layer" class="shp0" d="M774.41 482.48L802.3 482.48L802.3 510.37L774.41 510.37L774.41 482.48Z" />
	<path id="Layer" class="shp0" d="M880.91 482.48L908.8 482.48L908.8 510.37L880.91 510.37L880.91 482.48Z" />
	<path id="Layer" class="shp0" d="M774.41 551.29L802.3 551.29L802.3 579.18L774.41 579.18L774.41 551.29Z" />
	<path id="Layer" class="shp0" d="M880.91 551.29L908.8 551.29L908.8 579.18L880.91 579.18L880.91 551.29Z" />
	<path id="Layer" class="shp0" d="M774.41 620.1L802.3 620.1L802.3 647.99L774.41 647.99L774.41 620.1Z" />
	<path id="Layer" class="shp0" d="M880.91 620.1L908.8 620.1L908.8 647.99L880.91 647.99L880.91 620.1Z" />
	<path id="Layer" class="shp0" d="M774.41 706.89L774.41 688.9L802.3 688.9L802.3 704.33L774.41 706.89L774.41 706.89Z" />
	<path id="Layer" fill-rule="evenodd" class="shp0" d="M137.75 292.64L137.75 308.64L31.08 308.64L31.08 292.64L137.75 292.64ZM40.58 293.64L32.75 293.64L32.75 307.64L40.58 307.64L40.58 293.64ZM50.08 293.64L42.25 293.64L42.25 307.64L50.08 307.64L50.08 293.64ZM59.58 293.64L51.75 293.64L51.75 307.64L59.58 307.64L59.58 293.64ZM69.08 293.64L61.25 293.64L61.25 307.64L69.08 307.64L69.08 293.64ZM78.58 293.64L70.75 293.64L70.75 307.64L78.58 307.64L78.58 293.64ZM88.08 293.64L80.25 293.64L80.25 307.64L88.08 307.64L88.08 293.64ZM97.58 293.64L89.75 293.64L89.75 307.64L97.58 307.64L97.58 293.64ZM107.08 293.64L99.25 293.64L99.25 307.64L107.08 307.64L107.08 293.64ZM116.58 293.64L108.75 293.64L108.75 307.64L116.58 307.64L116.58 293.64ZM126.08 293.64L118.25 293.64L118.25 307.64L126.08 307.64L126.08 293.64ZM136.08 293.64L127.75 293.64L127.75 307.64L136.08 307.64L136.08 293.64Z" />
	<path id="Layer" fill-rule="evenodd" class="shp0" d="M137.75 339.1L137.75 355.05L31.08 355.05L31.08 339.1L137.75 339.1ZM40.58 340.1L32.75 340.1L32.75 354.05L40.58 354.05L40.58 340.1ZM50.08 340.1L42.25 340.1L42.25 354.05L50.08 354.05L50.08 340.1ZM59.58 340.1L51.75 340.1L51.75 354.05L59.58 354.05L59.58 340.1ZM69.08 340.1L61.25 340.1L61.25 354.05L69.08 354.05L69.08 340.1ZM78.58 340.1L70.75 340.1L70.75 354.05L78.58 354.05L78.58 340.1ZM88.08 340.1L80.25 340.1L80.25 354.05L88.08 354.05L88.08 340.1ZM97.58 340.1L89.75 340.1L89.75 354.05L97.58 354.05L97.58 340.1ZM107.08 340.1L99.25 340.1L99.25 354.05L107.08 354.05L107.08 340.1ZM116.58 340.1L108.75 340.1L108.75 354.05L116.58 354.05L116.58 340.1ZM126.08 340.1L118.25 340.1L118.25 354.05L126.08 354.05L126.08 340.1ZM136.08 340.1L127.75 340.1L127.75 354.05L136.08 354.05L136.08 340.1Z" />
	<path id="Layer" fill-rule="evenodd" class="shp0" d="M137.75 385.55L137.75 401.5L31.08 401.5L31.08 385.55L137.75 385.55ZM40.58 386.55L32.75 386.55L32.75 400.5L40.58 400.5L40.58 386.55ZM50.08 386.55L42.25 386.55L42.25 400.5L50.08 400.5L50.08 386.55ZM59.58 386.55L51.75 386.55L51.75 400.5L59.58 400.5L59.58 386.55ZM69.08 386.55L61.25 386.55L61.25 400.5L69.08 400.5L69.08 386.55ZM78.58 386.55L70.75 386.55L70.75 400.5L78.58 400.5L78.58 386.55ZM88.08 386.55L80.25 386.55L80.25 400.5L88.08 400.5L88.08 386.55ZM97.58 386.55L89.75 386.55L89.75 400.5L97.58 400.5L97.58 386.55ZM107.08 386.55L99.25 386.55L99.25 400.5L107.08 400.5L107.08 386.55ZM116.58 386.55L108.75 386.55L108.75 400.5L116.58 400.5L116.58 386.55ZM126.08 386.55L118.25 386.55L118.25 400.5L126.08 400.5L126.08 386.55ZM136.08 386.55L127.75 386.55L127.75 400.5L136.08 400.5L136.08 386.55Z" />
	<path id="Layer" fill-rule="evenodd" class="shp0" d="M137.75 432L137.75 448L31.08 448L31.08 432L137.75 432ZM40.58 433L32.75 433L32.75 447L40.58 447L40.58 433ZM50.08 433L42.25 433L42.25 447L50.08 447L50.08 433ZM59.58 433L51.75 433L51.75 447L59.58 447L59.58 433ZM69.08 433L61.25 433L61.25 447L69.08 447L69.08 433ZM78.58 433L70.75 433L70.75 447L78.58 447L78.58 433ZM88.08 433L80.25 433L80.25 447L88.08 447L88.08 433ZM97.58 433L89.75 433L89.75 447L97.58 447L97.58 433ZM107.08 433L99.25 433L99.25 447L107.08 447L107.08 433ZM116.58 433L108.75 433L108.75 447L116.58 447L116.58 433ZM126.08 433L118.25 433L118.25 447L126.08 447L126.08 433ZM136.08 433L127.75 433L127.75 447L136.08 447L136.08 433Z" />
	<path id="Layer" fill-rule="evenodd" class="shp0" d="M137.79 478.45L137.79 494.45L36.79 494.45C36.65 494.12 36.52 493.78 36.4 493.45L40.58 493.45L40.58 479.45L32.75 479.45L32.75 482.93C32.3 481.45 31.87 479.95 31.49 478.45L137.79 478.45ZM50.08 479.45L42.25 479.45L42.25 493.45L50.08 493.45L50.08 479.45ZM59.58 479.45L51.75 479.45L51.75 493.45L59.58 493.45L59.58 479.45ZM69.08 479.45L61.25 479.45L61.25 493.45L69.08 493.45L69.08 479.45ZM78.58 479.45L70.75 479.45L70.75 493.45L78.58 493.45L78.58 479.45ZM88.08 479.45L80.25 479.45L80.25 493.45L88.08 493.45L88.08 479.45ZM97.58 479.45L89.75 479.45L89.75 493.45L97.58 493.45L97.58 479.45ZM107.08 479.45L99.25 479.45L99.25 493.45L107.08 493.45L107.08 479.45ZM116.58 479.45L108.75 479.45L108.75 493.45L116.58 493.45L116.58 479.45ZM126.08 479.45L118.25 479.45L118.25 493.45L126.08 493.45L126.08 479.45ZM136.08 479.45L127.75 479.45L127.75 493.45L136.08 493.45L136.08 479.45Z" />
	<path id="Layer" fill-rule="evenodd" class="shp0" d="M137.8 524.91L137.8 540.91L66.91 540.91C66.53 540.58 66.22 540.24 65.91 539.91L69.08 539.91L69.08 525.91L61.25 525.91L61.25 534.61C60.69 533.94 60.13 533.28 59.58 532.61L59.58 525.9L54.39 525.9C54.14 525.57 53.9 525.23 53.66 524.9L137.8 524.91ZM78.58 525.9L70.75 525.9L70.75 539.9L78.58 539.9L78.58 525.9ZM88.08 525.9L80.25 525.9L80.25 539.9L88.08 539.9L88.08 525.9ZM97.58 525.9L89.75 525.9L89.75 539.9L97.58 539.9L97.58 525.9ZM107.08 525.9L99.25 525.9L99.25 539.9L107.08 539.9L107.08 525.9ZM116.58 525.9L108.75 525.9L108.75 539.9L116.58 539.9L116.58 525.9ZM126.08 525.9L118.25 525.9L118.25 539.9L126.08 539.9L126.08 525.9ZM136.08 525.9L127.75 525.9L127.75 539.9L136.08 539.9L136.08 525.9Z" />
	<path id="Layer" class="shp0" d="M106.02 571.35C106.92 571.86 107.83 572.35 108.75 572.84L108.75 572.35L116.58 572.35L116.58 576.77L118.25 577.53L118.25 572.35L126.08 572.35L126.08 580.84L127.75 581.48L127.75 572.35L136.08 572.35L136.08 584.35L137.75 584.87L137.75 571.35L106.02 571.35Z" />
	<path id="Layer" class="shp0" d="M434.94 154.16C434.94 154.16 411.11 152.73 413.94 169.43C413.87 169.85 413.86 170.28 413.92 170.7C413.98 171.12 414.11 171.53 414.3 171.92C414.49 172.3 414.73 172.65 415.03 172.96C415.33 173.26 415.67 173.52 416.05 173.72C416.43 173.92 416.1 172.48 418.5 172.9C418.71 172.94 418.93 172.97 419.14 172.99C419.36 173.02 419.57 173.03 419.79 173.04C420.01 173.06 420.22 173.06 420.44 173.06C420.66 173.05 420.87 173.05 421.09 173.03C421.38 173.01 421.67 172.97 421.95 172.9C422.23 172.83 422.51 172.75 422.78 172.63C423.05 172.52 423.3 172.39 423.55 172.24C423.8 172.08 424.03 171.91 424.25 171.72L424.25 171.72C424.25 171.72 430.95 168.95 433.56 158C433.56 158 435.49 155.61 435.41 155L431.41 156.72C431.41 156.72 432.78 159.62 431.7 162.03C431.7 162.03 431.57 156.82 430.8 156.95C430.64 156.95 428.71 157.95 428.71 157.95C428.71 157.95 431.07 163.01 429.29 166.68C429.29 166.68 429.97 160.45 427.97 158.32L425.14 159.97C425.14 159.97 427.9 165.19 426.03 169.45C426.03 169.45 426.51 162.92 424.54 160.37L421.98 162.37C421.98 162.37 424.57 167.52 422.98 171.05C422.98 171.05 422.77 163.45 421.41 162.87C421.17 163.08 420.93 163.29 420.7 163.51C420.47 163.73 420.25 163.95 420.03 164.19C419.82 164.42 419.61 164.66 419.4 164.91C419.2 165.15 419.01 165.4 418.82 165.66C418.63 165.92 420.6 169.4 419.5 171.37C419.5 171.37 418.82 166.3 418.27 166.28C418.27 166.28 416.03 169.64 415.8 171.94C415.83 171.41 415.89 170.88 415.98 170.36C416.08 169.84 416.21 169.32 416.37 168.81C416.53 168.31 416.73 167.81 416.96 167.33C417.18 166.85 417.44 166.39 417.73 165.94C417.41 166 417.09 166.08 416.78 166.19C416.48 166.3 416.18 166.42 415.89 166.57C415.6 166.72 415.32 166.89 415.05 167.08C414.79 167.27 414.54 167.48 414.3 167.71C414.06 167.94 414.65 165.34 418.3 165.13C418.3 165.13 420.15 162.58 420.64 162.43C420.64 162.43 417.03 162.13 414.84 163.1C414.84 163.1 416.77 160.86 421.3 161.87L423.84 159.81C423.84 159.81 419.02 159.16 417.02 159.86C417.02 159.86 419.34 157.86 424.47 159.32L427.23 157.67C426.7 157.55 426.17 157.46 425.63 157.37C425.09 157.29 424.55 157.23 424.01 157.18C423.47 157.13 422.93 157.1 422.39 157.09C421.85 157.08 421.3 157.09 420.76 157.11C420.22 157.13 423.31 155.74 428.03 157.23L430.03 156.34C430.03 156.34 427.03 155.76 426.19 155.67C425.35 155.58 425.27 155.33 425.27 155.33C425.74 155.25 426.21 155.21 426.68 155.19C427.16 155.18 427.63 155.2 428.1 155.25C428.57 155.31 429.04 155.39 429.5 155.51C429.96 155.62 430.41 155.77 430.85 155.95C431.29 156.13 435.02 154.39 434.94 154.16Z" />
	<path id="Layer" class="shp0" d="M372.36 235.39C372.36 235.39 364.22 257.84 381.03 259.89C381.41 260.08 381.82 260.2 382.25 260.27C382.67 260.33 383.1 260.32 383.52 260.25C383.94 260.18 384.35 260.04 384.73 259.84C385.11 259.64 385.45 259.39 385.75 259.08C386.05 258.77 384.57 258.68 385.66 256.5C385.75 256.3 385.84 256.11 385.93 255.91C386.01 255.71 386.09 255.5 386.16 255.3C386.23 255.1 386.29 254.89 386.35 254.68C386.41 254.47 386.46 254.26 386.51 254.05C386.57 253.77 386.61 253.48 386.63 253.19C386.65 252.9 386.64 252.61 386.61 252.32C386.58 252.03 386.53 251.75 386.45 251.47C386.38 251.19 386.28 250.91 386.16 250.65L386.16 250.65C386.16 250.65 385.41 243.44 375.64 237.83C375.64 237.83 373.9 235.3 373.29 235.2L373.8 239.54C373.8 239.54 376.97 239.05 378.97 240.77C378.97 240.77 373.97 239.42 373.84 240.19C373.84 240.35 374.21 242.48 374.21 242.48C374.21 242.48 379.73 241.65 382.75 244.41C382.75 244.41 376.97 241.99 374.35 243.3L375.13 246.48C375.13 246.48 380.93 245.31 384.48 248.32C384.48 248.32 378.35 246 375.35 247.17L376.54 250.17C376.54 250.17 382.21 249.17 385.15 251.67C385.15 251.67 377.8 249.67 376.86 250.85C376.99 251.14 377.12 251.43 377.27 251.71C377.42 251.99 377.57 252.27 377.73 252.54C377.89 252.82 378.06 253.09 378.24 253.35C378.42 253.61 378.61 253.87 378.8 254.12C378.99 254.37 382.89 253.48 384.47 255.12C384.47 255.12 379.42 254.33 379.24 254.86C379.24 254.86 381.82 257.96 383.96 258.86C383.46 258.68 382.97 258.48 382.5 258.24C382.03 258 381.57 257.73 381.13 257.43C380.7 257.13 380.28 256.8 379.88 256.45C379.49 256.1 379.12 255.72 378.77 255.32C378.74 255.64 378.73 255.97 378.75 256.29C378.76 256.62 378.8 256.94 378.86 257.26C378.92 257.58 379.01 257.9 379.11 258.2C379.22 258.51 379.35 258.81 379.5 259.1C379.65 259.39 377.32 258.1 378.16 254.56C378.16 254.56 376.24 252.06 376.23 251.56C376.23 251.56 374.92 254.93 375.23 257.3C375.23 257.3 373.62 254.82 375.89 250.76L374.62 247.76C374.62 247.76 372.62 252.13 372.77 254.26C372.77 254.26 371.53 251.48 374.37 246.97L373.57 243.86C373.31 244.33 373.06 244.81 372.83 245.3C372.6 245.79 372.39 246.28 372.19 246.78C371.99 247.28 371.81 247.79 371.64 248.31C371.48 248.82 371.33 249.34 371.2 249.86C371.07 250.38 370.61 247.03 373.38 242.92L373.09 240.77C373.09 240.77 371.68 243.45 371.35 244.26C371.02 245.07 370.77 245.05 370.77 245.05C370.83 244.58 370.92 244.11 371.04 243.66C371.16 243.2 371.31 242.75 371.5 242.31C371.68 241.88 371.9 241.45 372.14 241.05C372.38 240.64 372.65 240.25 372.95 239.88C373.25 239.51 372.64 235.4 372.36 235.39Z" />
	<path id="Layer" class="shp0" d="M530.4 216.48C530.4 216.48 522.25 238.92 539.07 240.97C539.45 241.16 539.86 241.29 540.28 241.35C540.71 241.41 541.14 241.41 541.56 241.33C541.98 241.26 542.38 241.12 542.76 240.92C543.14 240.72 543.48 240.47 543.78 240.16C544.08 239.85 542.61 239.77 543.69 237.58C543.78 237.39 543.87 237.19 543.96 236.99C544.04 236.79 544.12 236.59 544.19 236.38C544.26 236.18 544.33 235.97 544.39 235.77C544.45 235.56 544.5 235.35 544.55 235.14C544.61 234.86 544.65 234.57 544.67 234.28C544.69 233.99 544.68 233.7 544.65 233.41C544.62 233.12 544.56 232.83 544.49 232.55C544.41 232.27 544.31 231.99 544.19 231.73L544.19 231.73C544.19 231.73 543.44 224.52 533.68 218.91C533.68 218.91 531.94 216.39 531.33 216.28L531.83 220.63C531.83 220.63 535.02 220.16 537.02 221.86C537.02 221.86 532.02 220.5 531.89 221.28C531.89 221.44 532.26 223.57 532.26 223.57C532.26 223.57 537.78 222.74 540.79 225.49C540.79 225.49 535.01 223.07 532.4 224.38L533.18 227.56C533.18 227.56 538.97 226.4 542.52 229.4C542.52 229.4 536.39 227.09 533.4 228.25L534.59 231.25C534.59 231.25 540.26 230.25 543.2 232.74C543.2 232.74 535.84 230.74 534.91 231.92C535.04 232.21 535.17 232.5 535.32 232.78C535.46 233.07 535.62 233.34 535.78 233.62C535.94 233.89 536.11 234.16 536.29 234.43C536.47 234.69 536.66 234.95 536.85 235.2C537.04 235.45 540.94 234.55 542.51 236.2C542.51 236.2 537.46 235.41 537.28 235.93C537.28 235.93 539.87 239.03 542.01 239.93C541.51 239.75 541.02 239.54 540.55 239.3C540.08 239.06 539.62 238.79 539.18 238.49C538.75 238.19 538.33 237.87 537.93 237.51C537.54 237.16 537.17 236.78 536.82 236.38C536.79 236.7 536.78 237.03 536.79 237.36C536.81 237.68 536.85 238.01 536.91 238.33C536.97 238.65 537.05 238.96 537.16 239.27C537.27 239.58 537.4 239.88 537.55 240.17C537.7 240.46 535.37 239.17 536.2 235.62C536.2 235.62 534.28 233.13 534.28 232.62C534.28 232.62 532.96 235.99 533.28 238.37C533.28 238.37 531.68 235.89 533.94 231.83L532.68 228.83C532.68 228.83 530.68 233.2 530.82 235.34C530.82 235.34 529.58 232.55 532.42 228.04L531.63 224.93C531.37 225.4 531.12 225.88 530.89 226.37C530.66 226.86 530.45 227.35 530.25 227.85C530.05 228.35 529.87 228.86 529.71 229.38C529.54 229.89 529.39 230.41 529.26 230.93C529.13 231.45 528.66 228.1 531.43 223.99L531.14 221.85C531.14 221.85 529.74 224.53 529.4 225.34C529.06 226.15 528.83 226.12 528.83 226.12C528.89 225.65 528.98 225.18 529.1 224.73C529.22 224.27 529.37 223.82 529.56 223.38C529.74 222.95 529.95 222.52 530.19 222.12C530.44 221.71 530.7 221.32 531 220.95C531.3 220.58 530.67 216.48 530.4 216.48Z" />
	<path id="Layer" class="shp0" d="M304.49 399.96C304.49 399.96 296.35 422.41 313.16 424.45C313.54 424.64 313.95 424.77 314.38 424.83C314.8 424.89 315.23 424.89 315.65 424.81C316.07 424.74 316.48 424.6 316.86 424.4C317.24 424.2 317.58 423.95 317.88 423.64C318.18 423.33 316.7 423.25 317.79 421.07C317.88 420.88 317.97 420.68 318.06 420.48C318.14 420.28 318.22 420.08 318.29 419.87C318.36 419.67 318.42 419.46 318.48 419.25C318.54 419.04 318.59 418.83 318.64 418.62C318.7 418.34 318.74 418.05 318.76 417.76C318.78 417.47 318.77 417.18 318.74 416.89C318.71 416.6 318.66 416.31 318.58 416.03C318.51 415.75 318.41 415.47 318.29 415.21L318.29 415.21C318.29 415.21 317.54 408 307.78 402.39C307.78 402.39 306.03 399.87 305.42 399.76L305.93 404.11C305.93 404.11 309.1 403.62 311.11 405.34C311.11 405.34 306.11 403.98 305.97 404.76C305.97 404.92 306.34 407.05 306.34 407.05C306.34 407.05 311.86 406.22 314.88 408.97C314.88 408.97 309.1 406.55 306.48 407.86L307.27 411.04C307.27 411.04 313.06 409.88 316.61 412.88C316.61 412.88 310.48 410.57 307.48 411.73L308.67 414.73C308.67 414.73 314.34 413.73 317.28 416.22C317.28 416.22 309.93 414.22 308.99 415.4C309.12 415.69 309.25 415.98 309.4 416.26C309.55 416.55 309.7 416.83 309.86 417.1C310.03 417.37 310.2 417.64 310.38 417.91C310.56 418.17 310.74 418.43 310.94 418.68C311.14 418.93 315.02 418.03 316.6 419.68C316.6 419.68 311.55 418.89 311.37 419.41C311.37 419.41 313.95 422.51 316.09 423.41C315.59 423.23 315.1 423.02 314.63 422.78C314.16 422.54 313.71 422.27 313.27 421.97C312.83 421.67 312.41 421.35 312.02 420.99C311.63 420.64 311.26 420.26 310.91 419.86C310.88 420.18 310.87 420.51 310.88 420.84C310.9 421.16 310.93 421.49 310.99 421.81C311.06 422.13 311.14 422.44 311.25 422.75C311.35 423.06 311.48 423.36 311.63 423.65C311.78 423.94 309.46 422.65 310.29 419.1C310.29 419.1 308.37 416.61 308.36 416.1C308.36 416.1 307.05 419.48 307.36 421.85C307.36 421.85 305.76 419.37 308.02 415.31L306.76 412.31C306.76 412.31 304.76 416.68 304.9 418.82C304.9 418.82 303.66 416.03 306.5 411.53L305.7 408.41C305.44 408.88 305.19 409.36 304.96 409.85C304.73 410.34 304.52 410.83 304.32 411.33C304.12 411.83 303.94 412.34 303.78 412.86C303.61 413.37 303.46 413.89 303.33 414.41C303.2 414.93 302.74 411.58 305.51 407.47L305.22 405.33C305.22 405.33 303.81 408.01 303.48 408.82C303.15 409.63 302.9 409.6 302.9 409.6C302.96 409.13 303.05 408.66 303.17 408.21C303.3 407.75 303.45 407.3 303.63 406.86C303.82 406.43 304.03 406 304.27 405.6C304.51 405.19 304.78 404.8 305.08 404.43C305.38 404.06 304.77 399.96 304.49 399.96Z" />
	<path id="Layer" class="shp0" d="M272.17 188.36C272.17 188.36 264.02 210.81 280.83 212.86C281.21 213.05 281.62 213.17 282.05 213.24C282.47 213.3 282.9 213.29 283.32 213.22C283.74 213.15 284.15 213.01 284.53 212.81C284.91 212.61 285.25 212.36 285.55 212.05C285.85 211.74 284.38 211.65 285.46 209.47C285.56 209.28 285.64 209.08 285.73 208.88C285.81 208.68 285.89 208.48 285.96 208.27C286.03 208.07 286.1 207.86 286.15 207.65C286.21 207.44 286.26 207.23 286.31 207.02C286.37 206.74 286.41 206.45 286.43 206.16C286.45 205.87 286.44 205.58 286.41 205.29C286.38 205 286.33 204.71 286.25 204.43C286.18 204.15 286.08 203.87 285.96 203.61L285.96 203.61C285.96 203.61 285.21 196.4 275.45 190.8C275.45 190.8 273.71 188.27 273.09 188.17L273.6 192.51C273.6 192.51 276.77 192.02 278.78 193.74C278.78 193.74 273.78 192.39 273.65 193.16C273.65 193.32 274.02 195.45 274.02 195.45C274.02 195.45 279.53 194.62 282.55 197.37C282.55 197.37 276.77 194.96 274.16 196.26L274.94 199.45C274.94 199.45 280.73 198.28 284.28 201.29C284.28 201.29 278.15 198.97 275.16 200.13L276.35 203.13C276.35 203.13 282.02 202.13 284.95 204.62C284.95 204.62 277.6 202.62 276.66 203.81C276.79 204.1 276.92 204.39 277.07 204.67C277.22 204.95 277.37 205.23 277.53 205.51C277.7 205.78 277.87 206.05 278.05 206.31C278.23 206.57 278.41 206.83 278.61 207.08C278.81 207.33 282.69 206.44 284.27 208.08C284.27 208.08 279.22 207.29 279.04 207.82C279.04 207.82 281.63 210.92 283.76 211.82C283.26 211.64 282.77 211.44 282.3 211.2C281.83 210.96 281.37 210.69 280.94 210.39C280.5 210.09 280.08 209.76 279.69 209.41C279.3 209.06 278.93 208.68 278.58 208.28C278.55 208.6 278.54 208.93 278.55 209.26C278.57 209.58 278.61 209.9 278.67 210.22C278.73 210.54 278.81 210.86 278.92 211.17C279.03 211.47 279.16 211.77 279.31 212.06C279.46 212.35 277.13 211.06 277.96 207.52C277.96 207.52 276.04 205.02 276.03 204.52C276.03 204.52 274.72 207.9 275.03 210.27C275.03 210.27 273.43 207.79 275.69 203.73L274.43 200.73C274.43 200.73 272.43 205.1 272.57 207.23C272.57 207.23 271.33 204.45 274.17 199.94L273.37 196.83C273.11 197.3 272.86 197.78 272.63 198.27C272.4 198.76 272.19 199.25 271.99 199.75C271.79 200.26 271.61 200.76 271.45 201.28C271.28 201.79 271.13 202.31 271 202.83C270.87 203.35 270.41 199.99 273.18 195.89L272.89 193.74C272.89 193.74 271.49 196.42 271.15 197.23C270.81 198.04 270.57 198.01 270.57 198.01C270.63 197.54 270.72 197.07 270.84 196.62C270.97 196.16 271.12 195.71 271.3 195.27C271.49 194.84 271.7 194.41 271.94 194.01C272.18 193.6 272.45 193.21 272.75 192.84C273.05 192.47 272.44 188.37 272.17 188.36Z" />
	<path id="Layer" class="shp0" d="M332.6 310.57C332.6 310.57 338.89 333.57 353.8 325.57C354.22 325.5 354.63 325.37 355.01 325.18C355.39 324.98 355.74 324.73 356.04 324.43C356.35 324.13 356.6 323.78 356.79 323.4C356.99 323.02 357.12 322.61 357.19 322.19C357.26 321.77 356 322.55 355.63 320.14C355.59 319.93 355.55 319.71 355.5 319.5C355.46 319.29 355.4 319.08 355.34 318.87C355.28 318.66 355.22 318.45 355.15 318.25C355.08 318.04 355 317.84 354.92 317.64C354.81 317.37 354.67 317.11 354.52 316.87C354.36 316.62 354.19 316.39 354 316.17C353.81 315.95 353.6 315.75 353.37 315.56C353.15 315.37 352.91 315.21 352.66 315.06L352.66 315.06C352.66 315.06 347.89 309.61 336.66 310.65C336.66 310.65 333.78 309.59 333.23 309.86L336.14 313.12C336.14 313.12 338.45 310.89 341.08 311.12C341.08 311.12 336.19 312.91 336.56 313.6C336.63 313.75 338.18 315.26 338.18 315.26C338.18 315.26 342.18 311.4 346.26 311.91C346.26 311.91 340.14 313.27 338.76 315.84L341.24 318C341.24 318 345.29 313.7 349.93 314.11C349.93 314.11 343.59 315.75 341.81 318.43L344.53 320.22C344.53 320.22 348.53 316.11 352.42 316.47C352.42 316.47 345.28 319.11 345.18 320.58C345.45 320.75 345.73 320.9 346.01 321.05C346.29 321.2 346.58 321.34 346.87 321.47C347.16 321.6 347.45 321.72 347.75 321.83C348.05 321.94 348.35 322.05 348.65 322.14C348.95 322.23 351.65 319.26 353.84 319.67C353.84 319.67 349.26 321.93 349.41 322.47C349.41 322.47 353.31 323.47 355.56 322.99C355.05 323.13 354.53 323.25 354.01 323.32C353.48 323.4 352.96 323.44 352.43 323.45C351.9 323.46 351.37 323.43 350.84 323.37C350.31 323.31 349.79 323.21 349.28 323.08C349.44 323.36 349.62 323.64 349.82 323.89C350.02 324.15 350.24 324.4 350.48 324.62C350.71 324.85 350.96 325.06 351.23 325.25C351.49 325.44 351.77 325.61 352.06 325.76C352.35 325.91 349.7 326.19 348.34 322.82C348.34 322.82 345.34 321.89 345.03 321.47C345.03 321.47 345.9 324.98 347.52 326.74C347.52 326.74 344.78 325.64 344.29 321.02L341.52 319.28C341.52 319.28 342.43 323.99 343.76 325.67C343.76 325.67 341.14 324.11 340.86 318.79L338.41 316.71C338.47 317.25 338.55 317.79 338.64 318.32C338.74 318.85 338.85 319.38 338.98 319.91C339.11 320.44 339.25 320.96 339.42 321.48C339.58 321.99 339.76 322.5 339.96 323.01C340.16 323.52 337.84 321.01 337.73 316.08L336.26 314.5C336.26 314.5 336.66 317.5 336.85 318.35C337.04 319.2 336.85 319.35 336.85 319.35C336.63 318.93 336.43 318.5 336.27 318.06C336.1 317.61 335.97 317.16 335.87 316.69C335.77 316.23 335.7 315.76 335.66 315.29C335.62 314.82 335.62 314.34 335.65 313.87C335.68 313.4 332.82 310.41 332.6 310.57Z" />
	<path id="Layer" class="shp0" d="M503.23 331.16C503.23 331.16 509.52 354.16 524.44 346.16C524.86 346.09 525.27 345.96 525.65 345.77C526.03 345.57 526.38 345.32 526.68 345.02C526.98 344.72 527.23 344.37 527.43 343.99C527.62 343.61 527.75 343.2 527.82 342.78C527.89 342.36 526.64 343.14 526.26 340.73C526.23 340.52 526.19 340.3 526.14 340.09C526.09 339.88 526.04 339.67 525.98 339.46C525.92 339.25 525.86 339.04 525.78 338.84C525.71 338.63 525.63 338.43 525.55 338.23C525.44 337.96 525.3 337.7 525.15 337.46C525 337.21 524.82 336.98 524.63 336.76C524.44 336.54 524.23 336.34 524.01 336.15C523.79 335.96 523.55 335.8 523.3 335.65L523.3 335.65C523.3 335.65 518.53 330.2 507.3 331.24C507.3 331.24 504.42 330.18 503.86 330.45L506.78 333.71C506.78 333.71 509.09 331.48 511.72 331.71C511.72 331.71 506.83 333.5 507.19 334.2C507.26 334.34 508.81 335.85 508.81 335.85C508.81 335.85 512.81 331.99 516.89 332.5C516.89 332.5 510.78 333.86 509.4 336.43L511.87 338.59C511.87 338.59 515.93 334.29 520.56 334.7C520.56 334.7 514.22 336.34 512.44 339.02L515.16 340.81C515.16 340.81 519.16 336.7 523.06 337.06C523.06 337.06 515.92 339.7 515.81 341.18C516.08 341.34 516.36 341.5 516.64 341.65C516.93 341.79 517.21 341.93 517.5 342.06C517.79 342.19 518.09 342.31 518.39 342.42C518.68 342.53 518.99 342.64 519.29 342.73C519.59 342.82 522.29 339.85 524.47 340.26C524.47 340.26 519.89 342.53 520.05 343.06C520.05 343.06 523.95 344.06 526.2 343.58C525.69 343.72 525.17 343.84 524.65 343.91C524.12 343.99 523.6 344.03 523.07 344.04C522.54 344.05 522.01 344.02 521.48 343.96C520.95 343.9 520.43 343.8 519.92 343.67C520.08 343.95 520.26 344.23 520.46 344.49C520.66 344.74 520.88 344.99 521.11 345.21C521.35 345.44 521.6 345.65 521.87 345.84C522.13 346.03 522.41 346.2 522.7 346.35C522.99 346.5 520.34 346.78 518.97 343.41C518.97 343.41 515.97 342.48 515.66 342.06C515.66 342.06 516.54 345.57 518.16 347.34C518.16 347.34 515.42 346.23 514.93 341.61L512.16 339.87C512.16 339.87 513.06 344.58 514.39 346.26C514.39 346.26 511.77 344.7 511.49 339.38L509.05 337.3C509.11 337.84 509.19 338.38 509.28 338.91C509.38 339.44 509.49 339.97 509.62 340.5C509.74 341.03 509.89 341.55 510.05 342.07C510.21 342.58 510.39 343.09 510.59 343.6C510.79 344.11 508.47 341.6 508.37 336.67L506.9 335.09C506.9 335.09 507.3 338.09 507.49 338.94C507.68 339.79 507.49 339.94 507.49 339.94C507.27 339.52 507.07 339.09 506.91 338.65C506.74 338.2 506.61 337.75 506.51 337.28C506.41 336.82 506.34 336.35 506.3 335.88C506.26 335.41 506.26 334.93 506.29 334.46C506.32 333.99 503.46 330.95 503.23 331.16Z" />
	<path id="Layer" class="shp1" d="M922.97 672.03L933.04 682.66L949.01 654.52L947.57 651.36L922.97 672.03L922.97 672.03Z" />
	<path id="Layer" class="shp2" d="M922.97 672.03L933.04 682.66L949.01 654.52L947.57 651.36L922.97 672.03L922.97 672.03Z" />
	<path id="Layer" class="shp3" d="M215.07 647.94C215.07 701.34 178.5 712.67 141.85 712.67C105.2 712.67 84.57 667.67 84.57 614.25C84.57 560.83 114.28 517.55 150.93 517.55C187.58 517.55 215.07 594.54 215.07 647.94Z" />
	<path id="Layer" class="shp2" d="M215.07 647.94C215.07 701.34 178.5 712.67 141.85 712.67C105.2 712.67 84.57 667.67 84.57 614.25C84.57 560.83 114.28 517.55 150.93 517.55C187.58 517.55 215.07 594.54 215.07 647.94Z" />
	<path id="Layer" class="shp3" d="M189.73 615.97C189.73 669.37 166.19 712.67 137.15 712.67C108.11 712.67 83.42 669.37 83.42 615.97C83.42 608.59 82.28 601.41 83.13 594.51C88.44 551.44 112.13 519.28 137.13 519.28C166.19 519.28 189.73 562.57 189.73 615.97Z" />
	<path id="Layer" class="shp1" d="M184.49 380.59C184.49 380.59 138.4 432.27 123.76 475.34L521.76 519.28L734.96 475.34C734.96 475.34 650.52 374.16 627.7 370.25C604.88 366.34 184.49 380.59 184.49 380.59Z" />
	<path id="Layer" class="shp4" d="M184.49 380.59C184.49 380.59 138.4 432.27 123.76 475.34L521.76 519.28L734.96 475.34C734.96 475.34 650.52 374.16 627.7 370.25C604.88 366.34 184.49 380.59 184.49 380.59Z" />
	<path id="Layer" class="shp1" d="M476.53 512.06L540.41 691.28L540.41 645.92L558.19 595.14L607.45 573.33L669.91 601.67L692.25 608.65L694.2 567.31L619.94 530.7L585.37 514.11L506.24 507.21L484.41 503.31L476.53 512.06L476.53 512.06Z" />
	<path id="Layer" class="shp1" d="M505.02 530.7L563.14 537.37C560.5 514.16 577.73 514.16 577.73 514.16L519.59 504.1L492.45 504.1" />
	<path id="Layer" class="shp3" d="M540.41 718.84L581.61 718.84L700.92 714.84C700.92 714.84 703.5 737.59 734.92 732.24C734.92 732.24 752.22 733.35 754.08 723.95C755.94 714.55 714.68 627.68 714.68 627.68L658.43 585.68L607.43 573.3L570.82 584.07L547.56 621.07L532.92 671.72L540.41 718.84Z" />
	<path id="Layer" class="shp2" d="M540.41 718.84L581.61 718.84L700.92 714.84C700.92 714.84 703.5 737.59 734.92 732.24C734.92 732.24 752.22 733.35 754.08 723.95C755.94 714.55 714.68 627.68 714.68 627.68L658.43 585.68L607.43 573.3L570.82 584.07L547.56 621.07L532.92 671.72L540.41 718.84Z" />
	<path id="Layer" class="shp1" d="M192.51 392.96C186.61 397.78 167.97 415.07 152.44 451.63C151.9 452.89 151.66 454.25 151.74 455.62C151.82 456.98 152.21 458.31 152.89 459.5C153.57 460.69 154.51 461.7 155.65 462.46C156.79 463.22 158.08 463.71 159.44 463.88L253.02 476.01C254.73 476.23 256.47 476.14 258.15 475.74C259.82 475.33 261.41 474.63 262.84 473.65C264.26 472.68 265.49 471.45 266.47 470.03C267.46 468.61 268.17 467.03 268.58 465.35L285.03 398.24C285.28 397.24 285.29 396.2 285.07 395.2C284.85 394.19 284.4 393.26 283.76 392.45C283.11 391.65 282.3 391.01 281.37 390.57C280.44 390.14 279.42 389.92 278.39 389.94L196.62 391.46C196.25 391.47 195.88 391.5 195.51 391.57C195.15 391.64 194.79 391.73 194.44 391.86C194.09 391.99 193.75 392.15 193.43 392.33C193.1 392.51 192.8 392.72 192.51 392.96L192.51 392.96Z" />
	<path id="Layer" class="shp5" d="M192.51 392.96C186.61 397.78 167.97 415.07 152.44 451.63C151.9 452.89 151.66 454.25 151.74 455.62C151.82 456.98 152.21 458.31 152.89 459.5C153.57 460.69 154.51 461.7 155.65 462.46C156.79 463.22 158.08 463.71 159.44 463.88L253.02 476.01C254.73 476.23 256.47 476.14 258.15 475.74C259.82 475.33 261.41 474.63 262.84 473.65C264.26 472.68 265.49 471.45 266.47 470.03C267.46 468.61 268.17 467.03 268.58 465.35L285.03 398.24C285.28 397.24 285.29 396.2 285.07 395.2C284.85 394.19 284.4 393.26 283.76 392.45C283.11 391.65 282.3 391.01 281.37 390.57C280.44 390.14 279.42 389.92 278.39 389.94L196.62 391.46C196.25 391.47 195.88 391.5 195.51 391.57C195.15 391.64 194.79 391.73 194.44 391.86C194.09 391.99 193.75 392.15 193.43 392.33C193.1 392.51 192.8 392.72 192.51 392.96L192.51 392.96Z" />
	<path id="Layer" class="shp1" d="M328.5 389.79L433.88 388.79C441.47 388.72 448.27 393.79 450.83 401.53L483.69 476.16C486.6 484.9 480.31 494 471.69 493.5L317.87 483.37C305.11 482.63 296.08 469.62 299.03 456.21L310.18 405.54C312.19 396.38 319.75 389.87 328.5 389.79Z" />
	<path id="Layer" class="shp5" d="M328.5 389.79L433.88 388.79C441.47 388.72 448.27 393.79 450.83 401.53L483.69 476.16C486.6 484.9 480.31 494 471.69 493.5L317.87 483.37C305.11 482.63 296.08 469.62 299.03 456.21L310.18 405.54C312.19 396.38 319.75 389.87 328.5 389.79Z" />
	<path id="Layer" class="shp1" d="M492.31 388.59C521.12 388.07 597.47 385.89 635.45 377.14C635.45 377.14 700.63 426.24 720.16 463.28C720.16 463.28 618.56 488.01 548.39 491.36C545.8 491.48 543.21 491.22 540.7 490.59C538.19 489.96 535.78 488.97 533.55 487.64C531.33 486.31 529.31 484.67 527.56 482.76C525.81 480.85 524.35 478.69 523.22 476.36L485.91 399.04C485.37 397.94 485.12 396.73 485.18 395.51C485.24 394.29 485.6 393.1 486.24 392.06C486.88 391.02 487.77 390.15 488.83 389.54C489.89 388.94 491.09 388.61 492.31 388.59Z" />
	<path id="Layer" class="shp5" d="M492.31 388.59C521.12 388.07 597.47 385.89 635.45 377.14C635.45 377.14 700.63 426.24 720.16 463.28C720.16 463.28 618.56 488.01 548.39 491.36C545.8 491.48 543.21 491.22 540.7 490.59C538.19 489.96 535.78 488.97 533.55 487.64C531.33 486.31 529.31 484.67 527.56 482.76C525.81 480.85 524.35 478.69 523.22 476.36L485.91 399.04C485.37 397.94 485.12 396.73 485.18 395.51C485.24 394.29 485.6 393.1 486.24 392.06C486.88 391.02 487.77 390.15 488.83 389.54C489.89 388.94 491.09 388.61 492.31 388.59Z" />
	<path id="Layer" class="shp6" d="M528.84 399.78C540.84 399.57 564.25 398.95 587.11 397.24C595.5 396.6 603.93 396.93 612.25 398.22C620.56 399.51 628.7 401.76 636.5 404.91C644.3 408.07 651.71 412.11 658.59 416.96C665.46 421.81 671.75 427.44 677.34 433.73L678.08 434.57C679.7 436.44 680.81 438.7 681.29 441.13C681.78 443.56 681.62 446.07 680.83 448.42C680.04 450.77 678.66 452.87 676.81 454.52C674.97 456.17 672.72 457.31 670.3 457.83C645.08 463.24 602.12 471.5 568.96 473.1C567.1 473.19 565.24 473.01 563.44 472.57C561.64 472.12 559.91 471.41 558.31 470.46C556.71 469.52 555.26 468.34 554 466.97C552.75 465.6 551.7 464.05 550.89 462.38L524.27 407.21C523.89 406.43 523.72 405.56 523.76 404.7C523.81 403.83 524.07 402.99 524.52 402.25C524.98 401.51 525.61 400.89 526.37 400.46C527.12 400.03 527.97 399.8 528.84 399.78L528.84 399.78Z" />
	<path id="Layer" class="shp1" d="M540.41 691.28L540.41 718.84L235.75 672.33C220.82 667.16 211.91 670.33 211.91 670.33C200.91 664.96 192.91 644.01 192.68 643.33L192.68 643.33L198.43 626.68L151.73 549.44L89.6 552.02C99.37 473.91 127.5 470.18 127.5 470.18L492.5 504.06L540.41 691.28Z" />
	<path id="Layer" class="shp7" d="M474.75 526.77C472.36 529.39 467.99 531.77 459.93 531.55C447.58 531.25 445.24 520.71 444.93 514.42C444.91 514.03 444.9 513.65 444.89 513.26C444.89 512.88 444.89 512.49 444.9 512.11C444.92 511.72 444.93 511.34 444.96 510.95C444.99 510.57 445.02 510.18 445.06 509.8L461.24 504.85L464.55 507.94L474.32 517.09C474.98 517.7 475.51 518.44 475.89 519.25C476.26 520.06 476.48 520.95 476.52 521.84C476.56 522.74 476.42 523.63 476.12 524.48C475.81 525.32 475.35 526.1 474.75 526.77Z" />
	<path id="Layer" class="shp8" d="M474.75 525.91C472.36 528.53 467.99 530.91 459.93 530.69C447.58 530.39 445.24 519.85 444.93 513.56C444.91 513.17 444.9 512.79 444.89 512.4C444.89 512.02 444.89 511.63 444.9 511.25C444.92 510.86 444.93 510.48 444.96 510.09C444.99 509.71 445.02 509.32 445.06 508.94L461.24 503.99L464.55 507.08L474.32 516.23C474.98 516.84 475.51 517.58 475.89 518.39C476.26 519.2 476.48 520.09 476.52 520.98C476.56 521.88 476.42 522.77 476.12 523.62C475.81 524.46 475.35 525.24 474.75 525.91Z" />
	<path id="Layer" class="shp7" d="M464.56 507.08C462.49 512.35 456.37 513.78 456.37 513.78L444.94 513.56C444.92 513.17 444.91 512.79 444.9 512.4C444.9 512.02 444.9 511.63 444.91 511.25C444.93 510.86 444.94 510.48 444.97 510.09C445 509.71 445.03 509.32 445.07 508.94L461.25 503.99L464.56 507.08Z" />
	<path id="Layer" class="shp9" d="M423.32 466.73C423.32 466.73 397.48 470.19 404.37 493.55C409.59 511.25 421.24 512.44 426.58 511.99C427.36 511.92 428.13 511.86 428.91 511.81C429.69 511.76 430.47 511.72 431.25 511.7C432.03 511.67 432.81 511.65 433.59 511.64C434.37 511.63 435.15 511.64 435.93 511.65L456.36 512.06C456.36 512.06 467.9 509.37 464.67 497.74C461.44 486.11 446.58 464.79 423.32 466.73Z" />
	<path id="Layer" class="shp2" d="M283.41 537.37C276.82 537.37 271.49 530.44 271.49 521.86C271.49 513.28 276.82 506.35 283.41 506.35C290 506.35 295.33 513.28 295.33 521.86C295.33 530.44 290 537.37 283.41 537.37Z" />
	<path id="Layer" class="shp7" d="M270 515.43L303.93 519.05C306.81 519.36 308.9 521.94 308.59 524.83L308.59 524.84C308.28 527.73 305.7 529.81 302.81 529.5L268.88 525.88C266 525.58 263.91 522.99 264.22 520.11L264.22 520.1C264.53 517.21 267.11 515.12 270 515.43Z" />
	<path id="Layer" class="shp9" d="M270 514.57L303.93 518.19C306.82 518.5 308.9 521.08 308.59 523.96L308.59 523.97C308.28 526.86 305.7 528.95 302.81 528.64L268.89 525.02C266 524.71 263.91 522.13 264.22 519.24L264.22 519.23C264.53 516.34 267.11 514.26 270 514.57Z" />
	<path id="Layer" class="shp7" d="M85.86 623.08C85.86 623.08 64.47 601.97 90.45 551.16C90.45 551.16 123.76 500.76 175.45 555.9C175.45 555.9 205.17 589.06 213.78 642.04L193.54 642.47C193.54 642.47 174.15 548.57 117.3 553.31C117.3 553.3 75.95 560.62 85.86 623.08Z" />
	<path id="Layer" class="shp7" d="M85.02 625.66C85.02 625.66 63.62 604.56 89.61 553.73C89.61 553.73 122.92 503.34 174.61 558.47C174.61 558.47 204.33 591.64 212.95 644.61L192.7 645.04C192.7 645.04 173.29 551.16 116.44 555.89C116.44 555.89 75.09 563.21 85.02 625.66Z" />
	<path id="Layer" class="shp1" d="M85.02 623.94C85.02 623.94 63.62 602.83 89.61 552.01C89.61 552.01 122.92 501.62 174.61 556.75C174.61 556.75 204.33 589.91 212.95 642.89L192.7 643.32C192.7 643.32 173.29 549.43 116.44 554.16C116.44 554.16 75.09 561.49 85.02 623.94Z" />
	<path id="Layer" class="shp2" d="M85.02 623.94C85.02 623.94 63.62 602.83 89.61 552.01C89.61 552.01 122.92 501.62 174.61 556.75C174.61 556.75 204.33 589.91 212.95 642.89L192.7 643.32C192.7 643.32 173.29 549.43 116.44 554.16C116.44 554.16 75.09 561.49 85.02 623.94Z" />
	<path id="Layer" class="shp10" d="M540.41 691.28L540.41 718.84L235.75 672.33C220.82 667.16 211.91 670.33 211.91 670.33C200.91 664.96 192.91 644.01 192.68 643.33L192.68 643.33L212.93 642.9L271.51 651.08L484.42 681.66C484.42 681.66 522.18 685.97 524.33 687.66C526.48 689.35 540.41 691.28 540.41 691.28Z" />
	<path id="Layer" class="shp7" d="M540.41 690.42L540.41 717.98L235.75 671.46C220.82 666.3 211.91 669.46 211.91 669.46C200.91 664.09 192.91 643.14 192.68 642.46L192.68 642.46L212.93 642.03L271.51 650.21L484.42 680.79C484.42 680.79 522.18 685.1 524.33 686.79C526.48 688.48 540.41 690.42 540.41 690.42Z" />
	<path id="Layer" class="shp1" d="M540.41 691.28L540.41 718.84L235.75 672.33C220.82 667.16 211.91 670.33 211.91 670.33C200.91 664.96 192.91 644.01 192.68 643.33L192.68 643.33L212.93 642.9L271.51 651.08L484.42 681.66C484.42 681.66 522.18 685.97 524.33 687.66C526.48 689.35 540.41 691.28 540.41 691.28Z" />
	<path id="Layer" class="shp2" d="M540.41 691.28L540.41 718.84L235.75 672.33C220.82 667.16 211.91 670.33 211.91 670.33C200.91 664.96 192.91 644.01 192.68 643.33L192.68 643.33L212.93 642.9L271.51 651.08L484.42 681.66C484.42 681.66 522.18 685.97 524.33 687.66C526.48 689.35 540.41 691.28 540.41 691.28Z" />
	<path id="Layer" class="shp10" d="M951.59 589.91C951.59 589.91 849.94 641.6 724.59 636.43C724.59 636.43 696.41 637.82 694.45 635.24C692.49 632.66 701.72 646.1 701.72 646.1C701.72 646.1 705.2 642.46 708.65 642.46C712.1 642.46 727.87 643.63 727.87 643.63C727.87 643.63 908.07 636 954.16 595.08L951.59 589.91Z" />
	<path id="Layer" class="shp2" d="M271.08 651.16C252.15 590.38 253.16 547.99 257.34 523.16C261.88 496.16 271.06 483.43 271.15 483.31L271.84 483.82C271.75 483.94 262.68 496.58 258.18 523.38C254.02 548.16 253.02 590.33 271.91 650.95L271.08 651.16Z" />
	<path id="Layer" class="shp1" d="M954.46 624.53C955.22 627.36 956.99 635.18 954.18 637.29C953.11 638.09 952.18 640.06 951.46 642.4C951.18 643.39 950.92 644.39 950.67 645.39C950.43 646.39 950.21 647.4 950 648.41C949.8 649.42 949.62 650.44 949.45 651.46C949.29 652.47 949.14 653.5 949.02 654.52L919.72 687.25L870.19 706.64L751.74 714.82L680.24 598.53L519.59 504.05L563.45 501.62C607.32 499.18 731.85 471.62 731.85 471.62L872.72 502.74C878.36 503.98 883.87 505.73 889.18 507.97C894.5 510.21 899.6 512.94 904.42 516.11C909.24 519.28 913.75 522.89 917.91 526.89C922.07 530.89 925.86 535.26 929.22 539.95C946.37 563.95 954.22 589.95 954.22 589.95C956.34 592.49 957.16 596.65 957.28 601.21C957.44 608.64 955.74 617.1 954.81 621.14C954.46 622.65 954.22 623.55 954.22 623.55C954.22 623.55 954.3 623.89 954.46 624.53Z" />
	<path id="Layer" class="shp7" d="M524.32 685.96C524.32 685.96 515.71 593.83 580.32 568.83C580.32 568.83 671.2 530.47 724.61 634.71L751.74 694.16C751.74 694.16 759.49 708.8 780.6 708.37C780.6 708.37 880.09 705.37 932.6 671.76L948.97 652.76C948.97 652.76 940.79 679.46 932.6 685.49C932.6 685.49 900.3 723.39 782.71 730.29C782.71 730.29 734.62 735.45 720.12 689.8C720.12 689.8 700.45 586.43 600.52 587.29C600.52 587.29 541.81 588.44 540.37 689.51L524.32 685.96Z" />
	<path id="Layer" class="shp1" d="M524.32 687.68C524.32 687.68 515.71 595.56 580.32 570.55C580.32 570.55 671.2 532.2 724.61 636.43L751.74 695.87C751.74 695.87 759.49 710.51 780.6 710.08C780.6 710.08 880.09 707.08 932.6 673.47L949.02 654.52C949.02 654.52 940.84 681.22 932.65 687.25C932.65 687.25 900.35 725.16 782.76 732.05C782.76 732.05 734.67 737.22 720.17 691.56C720.17 691.56 700.5 588.19 600.57 589.05C600.57 589.05 541.86 590.21 540.42 691.28L524.32 687.68Z" />
	<path id="Layer" class="shp2" d="M524.32 687.68C524.32 687.68 515.71 595.56 580.32 570.55C580.32 570.55 671.2 532.2 724.61 636.43L751.74 695.87C751.74 695.87 759.49 710.51 780.6 710.08C780.6 710.08 880.09 707.08 932.6 673.47L949.02 654.52C949.02 654.52 940.84 681.22 932.65 687.25C932.65 687.25 900.35 725.16 782.76 732.05C782.76 732.05 734.67 737.22 720.17 691.56C720.17 691.56 700.5 588.19 600.57 589.05C600.57 589.05 541.86 590.21 540.42 691.28L524.32 687.68Z" />
	<path id="Layer" class="shp2" d="M509.4 684.9L505.51 556.73C505.64 554.56 505.72 552.39 505.74 550.22C505.77 548.05 505.74 545.88 505.65 543.71C505.57 541.53 505.43 539.37 505.24 537.2C505.05 535.04 504.81 532.88 504.51 530.73C504.39 530.19 501.3 516.97 497.17 509.46C494.52 505.59 492.27 504.41 492.17 504.39L489.88 503.77L492.44 503.58C494.21 503.92 495.89 505.76 497.44 508.33C500.26 512.2 503.58 519 505.33 530.59C505.63 532.75 505.87 534.91 506.07 537.09C506.26 539.26 506.39 541.43 506.48 543.61C506.56 545.79 506.59 547.97 506.57 550.15C506.54 552.33 506.46 554.5 506.33 556.68L510.22 684.82L509.4 684.9Z" />
	<path id="Layer" class="shp2" d="M588.49 589.84L587.65 589.98C587.65 589.88 585.86 579.25 579.96 570.8C567.59 553.09 563.55 541.08 563.09 533.06C563.03 532.37 563.01 531.67 563.03 530.98C563.04 530.28 563.09 529.59 563.17 528.9C563.26 528.21 563.38 527.52 563.53 526.85C563.68 526.17 563.87 525.5 564.09 524.84C566.02 519.43 571.19 515.43 578.21 513.45L578.21 513.45L579.71 513.7C572.96 515.6 566.71 520 564.86 525.13C564.64 525.78 564.45 526.44 564.3 527.11C564.15 527.78 564.03 528.45 563.95 529.13C563.86 529.81 563.81 530.5 563.8 531.18C563.78 531.87 563.8 532.56 563.86 533.24C564.36 541.09 568.41 552.87 580.58 570.32C586.68 578.92 588.48 589.73 588.49 589.84Z" />
	<path id="Layer" class="shp2" d="M864.37 548.07C809.49 515.32 693.31 484.86 692.14 484.56L692.36 483.72C693.53 484.03 809.83 514.52 864.81 547.33L864.37 548.07Z" />
	<path id="Layer" class="shp2" d="M944.16 593.46C923.44 557.01 867.65 526.96 824.49 508.16C817.19 505 809.85 501.96 802.46 499.03C795.07 496.1 787.63 493.28 780.16 490.58C772.68 487.88 765.16 485.29 757.61 482.82C750.05 480.35 742.46 478 734.83 475.76L735.06 474.93C742.7 477.17 750.3 479.53 757.87 482C765.43 484.47 772.96 487.06 780.44 489.77C787.93 492.47 795.37 495.29 802.77 498.23C810.17 501.16 817.52 504.21 824.83 507.37C868.11 526.22 924.07 556.37 944.91 593.03L944.16 593.46Z" />
	<path id="Layer" class="shp7" d="M945.47 583.05C941.09 586.35 926.21 573.97 912.18 555.36C898.16 536.75 890.36 519.04 894.75 515.74C899.13 512.43 914 524.81 928.03 543.42C942.05 562.03 949.85 579.74 945.47 583.05Z" />
	<path id="Layer" class="shp8" d="M945.47 581.32C941.09 584.62 926.21 572.25 912.19 553.64C898.16 535.03 890.37 517.31 894.75 514.01C899.13 510.71 914.01 523.09 928.03 541.7C942.06 560.31 949.85 578.02 945.47 581.32Z" />
	<path id="Layer" class="shp7" d="M942.2 575.55C939.35 577.69 927.69 567 916.11 551.63C904.53 536.26 897.47 522.11 900.31 519.96C903.15 517.82 914.82 528.51 926.4 543.88C937.98 559.25 945.04 573.41 942.2 575.55Z" />
	<path id="Layer" class="shp9" d="M942.2 574.69C939.36 576.84 927.69 566.15 916.11 550.78C904.53 535.41 897.47 521.25 900.31 519.11C903.16 516.96 914.82 527.66 926.4 543.02C937.98 558.39 945.04 572.55 942.2 574.69Z" />
	<path id="Layer" class="shp7" d="M816.56 613.82C816.56 613.82 819.36 592.71 835.95 587.97C835.95 587.97 892.37 571.65 904.65 571.41C904.65 571.41 917.35 567.52 925.75 576.99L934.36 588.62C934.36 588.62 940.36 598.1 927.04 599.82C927.04 599.82 858.85 624.82 829.28 627.42C828.86 627.46 828.44 627.5 828.02 627.55C827.6 627.6 827.19 627.66 826.77 627.72C826.35 627.79 825.94 627.86 825.52 627.93C825.11 628.01 824.69 628.09 824.28 628.18C819.96 629.08 810.89 629.34 816.56 613.82Z" />
	<path id="Layer" class="shp9" d="M817.43 612.96C817.43 612.96 820.23 591.85 836.81 587.11C836.81 587.11 893.23 570.79 905.51 570.55C905.51 570.55 918.21 566.65 926.61 576.13L935.23 587.76C935.23 587.76 941.23 597.23 927.9 598.96C927.9 598.96 859.72 623.96 830.15 626.56C829.73 626.6 829.31 626.64 828.89 626.69C828.47 626.74 828.06 626.8 827.64 626.86C827.22 626.93 826.81 627 826.39 627.07C825.98 627.15 825.56 627.23 825.15 627.32C820.82 628.22 811.75 628.48 817.43 612.96Z" />
	<path id="Layer" class="shp7" d="M823.37 611.16C823.37 611.16 825.98 593.11 841.37 589.06C841.37 589.06 893.83 575.06 905.24 574.89C905.24 574.89 917.05 571.56 924.86 579.66L932.86 589.61C932.86 589.61 938.46 597.72 926.05 599.19C926.05 599.19 862.66 620.59 835.17 622.8C834.78 622.83 834.4 622.87 834.01 622.91C833.63 622.96 833.24 623.01 832.86 623.06C832.47 623.12 832.09 623.18 831.71 623.24C831.32 623.3 830.94 623.37 830.56 623.45C826.53 624.16 818.1 624.42 823.37 611.16Z" />
	<path id="Layer" class="shp3" d="M824.24 610.28C824.24 610.28 826.84 592.28 842.24 588.18C842.24 588.18 894.7 574.18 906.11 574.01C906.11 574.01 917.92 570.67 925.73 578.78L933.73 588.78C933.73 588.78 939.33 596.88 926.92 598.36C926.92 598.36 863.52 619.76 836.03 621.97C835.64 622 835.26 622.04 834.88 622.08C834.49 622.13 834.11 622.18 833.73 622.23C833.34 622.29 832.96 622.35 832.58 622.41C832.2 622.47 831.82 622.54 831.44 622.62C827.39 623.34 818.96 623.56 824.24 610.28Z" />
	<path id="Layer" class="shp9" d="M828.67 599.16L828.56 598.3C829.33 598.21 905.95 588.69 922.44 575.96L922.97 576.64C906.29 589.49 831.83 598.75 828.67 599.16Z" />
	<path id="Layer" class="shp9" d="M824.64 609.08L824.49 608.23C825.33 608.08 909.62 592.47 927.8 581.23L928.26 581.96C909.94 593.29 825.49 608.92 824.64 609.08Z" />
	<path id="Layer" class="shp9" d="M822.65 617.25L822.49 616.41C823.49 616.22 920.49 597.91 932.49 587.18L933.06 587.82C920.93 598.71 826.65 616.5 822.65 617.25Z" />
	<path id="Layer" class="shp7" d="M923.6 617.69C923.6 617.69 887.04 632.94 848.6 639.78C845.2 640.39 841.84 641.15 838.51 642.06C834.61 643.12 829.07 644.32 826.06 643.54C821.11 642.24 818.37 648.27 823.72 653.01L824.06 653.31C825.02 654.16 826.07 654.91 827.19 655.55C828.3 656.18 829.48 656.71 830.7 657.11C831.92 657.51 833.17 657.79 834.45 657.94C835.72 658.09 837.01 658.12 838.29 658.01L846.52 657.32C846.52 657.32 913.29 642.68 931.91 631.26C931.91 631.26 940.41 625.43 941.06 618.87C941.71 612.31 942.48 607.14 935.74 611.02C929 614.9 923.6 617.69 923.6 617.69Z" />
	<path id="Layer" class="shp9" d="M924.42 616.85C923.06 617.41 887.17 632.21 849.42 638.92C846.02 639.53 842.66 640.29 839.33 641.2C835.44 642.26 829.89 643.46 826.88 642.68C821.88 641.38 819.19 647.41 824.54 652.15L824.7 652.29C825.69 653.17 826.77 653.94 827.92 654.61C829.07 655.27 830.28 655.81 831.54 656.23C832.79 656.64 834.09 656.93 835.41 657.09C836.72 657.25 838.05 657.27 839.37 657.16L847.29 656.5L847.42 656.5C849.71 656 914.42 641.69 932.72 630.5L932.79 630.5C933.36 630.09 941.28 624.45 941.9 618.13C942.55 611.57 943.33 606.4 936.58 610.28C930.17 613.96 924.98 616.68 924.5 616.93L924.42 616.85Z" />
	<path id="Layer" class="shp7" d="M919.54 621.67C919.54 621.67 889.54 634.15 857.33 641.24C854.13 641.94 850.96 642.76 847.81 643.67C844.66 644.58 840.16 645.67 837.66 645.35C833.38 644.78 831.34 649.05 836.14 651.92L836.29 652.01C837.19 652.55 838.13 653.01 839.11 653.39C840.09 653.76 841.1 654.06 842.13 654.27C843.15 654.47 844.2 654.59 845.25 654.62C846.29 654.65 847.34 654.6 848.38 654.45L855.8 653.45C855.8 653.45 911.99 639.31 927.29 630.39C927.29 630.39 934.29 625.9 934.47 621.39C934.65 616.88 935.09 613.39 929.54 616.39C923.99 619.39 919.54 621.67 919.54 621.67Z" />
	<path id="Layer" class="shp3" d="M920.39 620.81C919.75 621.08 890.05 633.36 858.2 640.38C855 641.08 851.82 641.9 848.67 642.81C845.52 643.72 841.03 644.81 838.52 644.49C834.24 643.92 832.2 648.18 837.01 651.06L837.01 651.06C837.93 651.61 838.9 652.08 839.9 652.47C840.91 652.86 841.94 653.16 842.99 653.38C844.05 653.59 845.12 653.71 846.19 653.75C847.27 653.78 848.35 653.72 849.41 653.57L856.63 652.57L856.63 652.57C857.79 652.28 912.93 638.35 928.09 629.57L928.09 629.57C928.33 629.41 935.09 625 935.26 620.57C935.43 616.14 935.88 612.52 930.33 615.57C924.78 618.62 920.58 620.73 920.33 620.85L920.39 620.81Z" />
	<path id="Layer" class="shp7" d="M798.07 657.79C797.75 664.04 793.76 668.91 789.13 668.68C784.5 668.45 781.01 663.2 781.33 656.95C781.64 650.7 785.63 645.83 790.26 646.06C794.89 646.29 798.38 651.53 798.07 657.79Z" />
	<path id="Layer" class="shp9" d="M797.82 657.73C797.51 663.98 793.52 668.84 788.9 668.61C784.28 668.38 780.79 663.15 781.1 656.9C781.41 650.65 785.4 645.79 790.03 646.02C794.65 646.25 798.13 651.49 797.82 657.73Z" />
	<path id="Layer" class="shp7" d="M838.88 665.93C838.88 665.93 795.03 672.61 783.4 673.26C771.77 673.91 770.02 680.36 770.02 680.36C770.02 680.36 767.22 696.73 783.37 691.99L840.65 685.53C840.65 685.53 848.41 685.75 848.41 675.19L848.41 672.82C848.42 672.49 848.43 672.16 848.45 671.83C848.47 671.5 848.49 671.17 848.53 670.84C848.56 670.51 848.6 670.18 848.65 669.85C848.7 669.52 848.75 669.2 848.81 668.87C849.12 667.22 848.27 664.54 838.88 665.93Z" />
	<path id="Layer" class="shp9" d="M839.74 665.07C839.74 665.07 795.89 671.75 784.26 672.39C772.63 673.03 770.91 679.5 770.91 679.5C770.91 679.5 768.11 695.87 784.26 691.13L841.55 684.67C841.55 684.67 849.3 684.89 849.3 674.33L849.3 671.96C849.31 671.63 849.32 671.3 849.34 670.97C849.36 670.64 849.38 670.31 849.42 669.98C849.45 669.65 849.49 669.32 849.54 668.99C849.59 668.66 849.64 668.34 849.7 668.01C850.02 666.36 849.13 663.68 839.74 665.07Z" />
	<path id="Layer" class="shp9" d="M954.18 637.29C953.11 638.09 952.18 640.06 951.46 642.4L951.46 642.4L937.26 652.46C937.09 652.58 936.88 652.66 936.67 652.67C936.46 652.69 936.25 652.64 936.06 652.54C935.87 652.45 935.71 652.3 935.6 652.12C935.49 651.94 935.43 651.73 935.43 651.52L935.43 640.96C935.43 640.21 935.53 639.46 935.72 638.73C935.91 638 936.19 637.3 936.56 636.64C936.94 635.98 937.39 635.38 937.92 634.84C938.44 634.3 939.03 633.83 939.68 633.44L954.46 624.53C955.22 627.36 957.02 635.16 954.18 637.29Z" />
	<path id="Layer" class="shp3" d="M853.68 666.48L853.02 677.16C852.94 678.22 853.09 679.29 853.48 680.29C853.86 681.28 854.47 682.18 855.24 682.91C856.02 683.64 856.95 684.19 857.97 684.51C858.99 684.84 860.06 684.93 861.12 684.78C867.15 683.82 873.13 682.58 879.04 681.06C884.96 679.54 890.8 677.74 896.54 675.68C902.29 673.61 907.93 671.28 913.46 668.69C918.99 666.1 924.4 663.25 929.66 660.16L931.53 638.34C931.58 637.81 931.5 637.27 931.28 636.78C931.06 636.29 930.72 635.87 930.29 635.55C929.86 635.24 929.35 635.04 928.82 634.98C928.29 634.92 927.75 635 927.26 635.21C915.26 640.56 883.09 654.27 862.67 656.89C861.49 657.05 860.35 657.4 859.29 657.95C858.23 658.49 857.27 659.21 856.46 660.08C855.65 660.95 854.99 661.95 854.52 663.04C854.04 664.13 853.76 665.29 853.68 666.48Z" />
	<path id="Layer" class="shp1" d="M860.28 660.98L860.28 678.34C860.28 678.34 913.69 665.72 925.53 657.21L925.53 640.74C920.34 643.11 915.07 645.32 909.74 647.35C904.4 649.39 899 651.25 893.55 652.95C888.1 654.64 882.59 656.15 877.04 657.49C871.49 658.83 865.9 660 860.28 660.98L860.28 660.98Z" />
	<path id="Layer" class="shp1" d="M953.91 621.97C951.2 621.78 949.03 617.13 949.03 611.44C949.03 605.75 951.29 600.9 954.03 600.9C954.25 600.91 954.47 600.94 954.68 601C954.89 601.05 955.1 601.13 955.29 601.23C955.49 601.32 955.68 601.44 955.85 601.57C956.02 601.71 956.18 601.86 956.32 602.03C956.54 609.46 954.84 617.92 953.91 621.97Z" />
	<path id="Layer" class="shp9" d="M954.77 621.1C952.06 620.92 949.9 616.27 949.9 610.58C949.9 604.89 952.15 600.03 954.9 600.03C955.12 600.04 955.34 600.08 955.55 600.13C955.76 600.19 955.97 600.26 956.17 600.36C956.37 600.46 956.55 600.58 956.73 600.71C956.9 600.85 957.06 601 957.2 601.17C957.4 608.6 955.7 617.06 954.77 621.1Z" />
	<path id="Layer" class="shp3" d="M709.1 694.68C709.1 789.33 669.1 791.38 616.93 791.38C575.25 791.38 558.19 748.09 558.19 694.68C558.19 641.27 571.58 598.1 613.25 598.1C654.92 598.1 709.1 641.28 709.1 694.68Z" />
	<path id="Layer" class="shp2" d="M709.1 694.68C709.1 789.33 669.1 791.38 616.93 791.38C575.25 791.38 558.19 748.09 558.19 694.68C558.19 641.27 571.58 598.1 613.25 598.1C654.92 598.1 709.1 641.28 709.1 694.68Z" />
	<path id="Layer" class="shp3" d="M610.77 791.38C581.69 791.38 558.19 748.16 558.19 694.68C558.19 641.2 581.69 597.98 610.77 597.98C639.85 597.98 663.35 641.2 663.35 694.68C663.35 748.16 639.85 791.38 610.77 791.38Z" />
	<path id="Layer" class="shp9" d="M160.23 637.29C160.23 666.29 151.83 689.55 134.38 689.55C116.93 689.55 96.19 666.02 96.19 637C96.19 607.98 103.44 582.45 120.89 582.45C138.34 582.45 160.23 608.27 160.23 637.29Z" />
	<path id="Layer" class="shp3" d="M160.22 636.16C160.22 638.36 160.16 640.52 160.04 642.64C159.98 644.03 159.88 645.42 159.75 646.81C159.61 648.2 159.45 649.58 159.24 650.96C159.04 652.34 158.8 653.72 158.53 655.08C158.25 656.45 157.94 657.81 157.6 659.16C154.77 669.84 149.6 677.26 142.06 678.67C141.84 678.71 141.62 678.75 141.39 678.78C141.17 678.81 140.95 678.83 140.72 678.85C140.5 678.87 140.27 678.89 140.05 678.9C139.82 678.91 139.6 678.91 139.37 678.91C138.38 678.88 137.39 678.78 136.42 678.61C135.44 678.44 134.48 678.2 133.53 677.89C132.59 677.58 131.67 677.21 130.78 676.78C129.89 676.34 129.03 675.85 128.21 675.29C121.02 670.71 114.39 662.16 111.02 651.47C110.71 650.49 110.42 649.5 110.17 648.5C109.91 647.5 109.69 646.5 109.5 645.49C109.3 644.47 109.14 643.46 109.01 642.43C108.88 641.41 108.78 640.39 108.71 639.36C108.63 638.24 108.59 637.1 108.59 635.96C108.57 633.99 108.6 632.01 108.69 630.04C108.77 628.07 108.92 626.1 109.11 624.14C109.31 622.18 109.56 620.22 109.86 618.27C110.17 616.32 110.53 614.38 110.94 612.45C111.17 611.28 111.46 610.11 111.79 608.96C112.12 607.81 112.5 606.68 112.92 605.56C113.35 604.44 113.82 603.34 114.34 602.26C114.85 601.18 115.42 600.12 116.02 599.09C119.1 594.24 123.19 591.35 128.43 591.35C129.4 591.39 130.37 591.5 131.33 591.68C132.29 591.85 133.24 592.1 134.16 592.41C135.08 592.72 135.98 593.1 136.85 593.54C137.72 593.98 138.56 594.48 139.36 595.04C140.56 595.86 141.71 596.73 142.82 597.67C143.93 598.6 144.99 599.59 146 600.63C147 601.67 147.96 602.76 148.85 603.9C149.75 605.04 150.58 606.23 151.36 607.45C152.76 609.57 154.02 611.78 155.1 614.07C156.19 616.37 157.11 618.74 157.86 621.17C158.61 623.59 159.19 626.07 159.58 628.58C159.97 631.09 160.19 633.62 160.22 636.16Z" />
	<path id="Layer" class="shp9" d="M160.02 642.68C159.96 644.07 159.86 645.46 159.73 646.84C159.6 648.23 159.43 649.61 159.23 650.98C159.03 652.36 158.79 653.73 158.52 655.09C158.25 656.46 157.94 657.81 157.6 659.16C157.24 658.75 147.36 647.33 139.94 654.66C134.49 660.03 139.08 672.26 142.06 678.66C141.84 678.7 141.62 678.74 141.39 678.77C141.17 678.8 140.95 678.82 140.72 678.84C140.5 678.86 140.27 678.88 140.05 678.89C139.82 678.9 139.6 678.9 139.37 678.9C138.38 678.87 137.39 678.77 136.42 678.6C135.44 678.43 134.48 678.19 133.53 677.88C132.59 677.57 131.67 677.2 130.78 676.77C129.89 676.33 129.03 675.84 128.21 675.28L128.21 674.46C128.21 674.46 132.6 660.78 120.89 652.35C120.89 652.35 115.2 650.09 110.97 651.45C110.66 650.47 110.37 649.48 110.12 648.48C109.86 647.48 109.64 646.48 109.45 645.47C109.25 644.45 109.09 643.44 108.96 642.41C108.83 641.39 108.73 640.37 108.66 639.34C109.66 638.55 116.51 632.68 113.71 621.62C113.52 620.84 113.32 620.06 113.11 619.29C112.9 618.52 112.67 617.75 112.44 616.98C112.2 616.22 111.96 615.45 111.7 614.69C111.44 613.94 111.17 613.18 110.89 612.43C111.13 611.26 111.42 610.1 111.75 608.95C112.09 607.8 112.47 606.66 112.9 605.55C113.33 604.43 113.81 603.33 114.33 602.25C114.85 601.18 115.41 600.12 116.02 599.09C116.63 598.06 118.27 611.3 126.88 612.03C135.49 612.76 139.25 595.51 139.36 595.03C140.56 595.85 141.71 596.72 142.82 597.66C143.93 598.59 144.99 599.58 146 600.62C147 601.66 147.96 602.75 148.85 603.89C149.75 605.03 150.58 606.22 151.36 607.44C152.14 608.66 137.61 613.16 141.62 628.38C144.56 639.16 154.52 641.97 160.02 642.68Z" />
	<path id="Layer" class="shp3" d="M132.37 644.84C128.83 645.34 125.27 640.79 124.4 634.66C123.53 628.53 125.69 623.17 129.23 622.67C132.77 622.17 136.33 626.72 137.19 632.85C138.06 638.98 135.9 644.34 132.37 644.84Z" />
	<path id="Layer" class="shp9" d="M619.94 698.72C619.94 733.49 612.53 761.34 597.14 761.34C581.75 761.34 563.45 733.15 563.45 698.34C563.45 663.53 569.85 632.98 585.24 632.98C600.63 632.98 619.94 663.95 619.94 698.72Z" />
	<path id="Layer" class="shp3" d="M619.94 697.41C619.94 700.08 619.89 702.67 619.78 705.18C619.72 706.84 619.64 708.49 619.52 710.15C619.4 711.8 619.25 713.45 619.07 715.1C618.89 716.75 618.68 718.39 618.44 720.03C618.2 721.67 617.92 723.31 617.62 724.94C615.13 737.74 610.62 746.62 603.91 748.32C603.72 748.37 603.52 748.41 603.32 748.44C603.13 748.48 602.93 748.51 602.73 748.53C602.54 748.55 602.34 748.57 602.14 748.58C601.94 748.59 601.74 748.6 601.54 748.6C598.32 748.6 594.94 747.06 591.7 744.26C585.32 738.77 579.5 728.47 576.49 715.71C576.21 714.52 575.97 713.32 575.74 712.12C575.52 710.92 575.33 709.71 575.16 708.5C574.99 707.29 574.86 706.07 574.74 704.86C574.63 703.64 574.55 702.42 574.49 701.2C574.42 699.86 574.38 698.5 574.38 697.12C574.36 694.76 574.39 692.41 574.46 690.05C574.54 687.7 574.66 685.35 574.84 683C575.01 680.65 575.23 678.3 575.5 675.96C575.77 673.62 576.09 671.29 576.46 668.96C576.66 667.58 576.91 666.22 577.2 664.86C577.5 663.5 577.83 662.15 578.21 660.81C578.59 659.47 579.02 658.15 579.49 656.84C579.96 655.53 580.47 654.24 581.02 652.96C583.74 647.15 587.35 643.69 591.97 643.69C595.08 643.69 598.39 645.28 601.61 648.11C605.46 651.5 609.17 656.65 612.23 662.98C613.5 665.66 614.61 668.41 615.57 671.21C616.54 674.02 617.34 676.87 617.99 679.77C618.64 682.66 619.13 685.59 619.45 688.54C619.78 691.48 619.94 694.45 619.94 697.41L619.94 697.41Z" />
	<path id="Layer" class="shp9" d="M619.78 705.16C619.72 706.82 619.64 708.47 619.52 710.13C619.4 711.78 619.25 713.43 619.07 715.08C618.89 716.73 618.68 718.37 618.44 720.01C618.2 721.65 617.92 723.29 617.62 724.92C617.31 724.42 608.62 710.74 602.04 719.52C597.24 725.96 601.28 740.61 603.91 748.3C603.72 748.35 603.52 748.39 603.32 748.42C603.13 748.46 602.93 748.49 602.73 748.51C602.54 748.53 602.34 748.55 602.14 748.56C601.94 748.57 601.74 748.58 601.54 748.58C598.32 748.58 594.94 747.04 591.7 744.24L591.7 743.24C591.7 743.24 595.57 726.85 585.24 716.75C585.24 716.75 580.24 714.04 576.49 715.67C576.21 714.48 575.97 713.28 575.74 712.08C575.52 710.88 575.33 709.67 575.16 708.46C574.99 707.25 574.86 706.03 574.74 704.82C574.63 703.6 574.55 702.38 574.49 701.16C575.37 700.21 581.41 693.16 578.94 679.93C578 674.93 577.16 671.36 576.46 668.93C576.66 667.55 576.91 666.19 577.2 664.83C577.5 663.47 577.83 662.12 578.21 660.78C578.59 659.44 579.02 658.12 579.49 656.81C579.96 655.5 580.47 654.21 581.02 652.93C581.57 651.65 583.02 667.57 590.6 668.43C598.18 669.29 601.51 648.65 601.6 648.08C605.45 651.47 609.16 656.62 612.22 662.95C612.22 662.95 600.09 669.81 603.63 688.04C606.12 701.01 614.91 704.33 619.78 705.16Z" />
	<path id="Layer" class="shp3" d="M592.52 709.3C589.37 709.56 586.33 703.81 585.73 696.44C585.13 689.07 587.19 682.91 590.34 682.65C593.49 682.39 596.53 688.14 597.13 695.51C597.73 702.88 595.67 709.04 592.52 709.3Z" />
	<path id="Layer" class="shp11" d="" />
	<path id="Layer" class="shp2" d="M736.65 547.31L736.3 548.1C735.96 547.94 706.18 535.1 595.75 516.36C590.59 515.49 585.26 514.6 579.75 513.69C579.24 513.62 578.75 513.53 578.22 513.45C560.55 510.57 541.04 507.58 519.52 504.45L519.64 503.59C548.79 507.79 574.24 511.79 596.44 515.59C706.59 534.31 736.3 547.16 736.65 547.31Z" />
	<path id="Layer" class="shp7" d="M176.88 383.67C176.88 383.67 186.88 366.67 221.1 365.16C221.1 365.16 471.2 332.49 629.1 366.44C629.1 366.44 642.58 372.44 627.95 375.96C613.32 379.48 277.09 391.65 176.88 383.67Z" />
	<path id="Layer" class="shp12" d="M176.88 381.95C176.88 381.95 186.88 364.95 221.1 363.43C221.1 363.43 471.2 330.77 629.1 364.72C629.1 364.72 642.58 370.72 627.95 374.24C613.32 377.76 277.09 389.93 176.88 381.95Z" />
	<path id="Layer" class="shp7" d="M153.47 453.36C169 416.8 187.64 399.51 193.54 394.68C193.83 394.45 194.13 394.24 194.46 394.05C194.78 393.87 195.12 393.71 195.46 393.59C195.81 393.46 196.17 393.36 196.54 393.29C196.9 393.22 197.27 393.19 197.64 393.18L279.46 391.66C280.01 391.65 280.56 391.7 281.1 391.83C281.63 391.95 282.15 392.14 282.64 392.39C283.13 392.65 283.59 392.96 284 393.32C284.41 393.69 284.78 394.1 285.09 394.56C284.87 393.88 284.54 393.24 284.12 392.67C283.7 392.1 283.19 391.59 282.61 391.18C282.03 390.77 281.38 390.45 280.7 390.24C280.02 390.03 279.31 389.93 278.6 389.94L196.78 391.46C196.41 391.47 196.04 391.5 195.67 391.57C195.31 391.64 194.95 391.73 194.6 391.86C194.25 391.99 193.92 392.15 193.59 392.33C193.27 392.51 192.97 392.72 192.68 392.96C186.78 397.78 168.14 415.07 152.61 451.63C152.33 452.29 152.12 452.99 152.01 453.7C151.89 454.42 151.87 455.14 151.93 455.86C151.99 456.58 152.14 457.29 152.37 457.97C152.61 458.65 152.93 459.3 153.32 459.91C153.12 459.39 152.98 458.84 152.88 458.29C152.79 457.74 152.75 457.18 152.76 456.62C152.78 456.06 152.84 455.5 152.96 454.96C153.08 454.41 153.25 453.87 153.47 453.36Z" />
	<path id="Layer" class="shp7" d="M300.75 457.44L311.9 406.77C313.9 397.6 321.48 391.1 330.22 391.02L435.6 390.02C436.59 390.01 437.59 390.09 438.57 390.26C439.55 390.43 440.51 390.68 441.45 391.02C442.39 391.35 443.29 391.77 444.15 392.26C445.02 392.75 445.84 393.32 446.6 393.96C445.8 393.09 444.9 392.3 443.94 391.61C442.97 390.92 441.93 390.33 440.84 389.85C439.75 389.38 438.62 389.01 437.46 388.77C436.29 388.53 435.11 388.41 433.92 388.41L328.54 389.41C319.79 389.5 312.23 396 310.22 405.17L299.02 455.83C298.55 457.86 298.36 459.95 298.46 462.04C298.55 464.12 298.93 466.18 299.58 468.16C300.23 470.15 301.15 472.03 302.31 473.77C303.47 475.5 304.86 477.07 306.44 478.43C305.15 477.05 304.03 475.52 303.11 473.87C302.19 472.22 301.47 470.47 300.98 468.64C300.49 466.82 300.22 464.94 300.18 463.06C300.14 461.17 300.33 459.28 300.75 457.44Z" />
	<path id="Layer" class="shp7" d="M528.6 478.78L491.3 401.46C490.77 400.36 490.53 399.15 490.59 397.94C490.65 396.72 491.02 395.54 491.66 394.51C492.29 393.47 493.18 392.61 494.24 392.01C495.29 391.4 496.48 391.07 497.7 391.05C526.11 390.53 600.78 388.4 639.26 379.95C636.84 378.06 635.45 377.01 635.45 377.01C597.45 385.76 521.12 387.94 492.31 388.46C491.09 388.48 489.9 388.81 488.85 389.42C487.79 390.02 486.9 390.88 486.27 391.92C485.63 392.95 485.26 394.13 485.2 395.35C485.14 396.56 485.38 397.77 485.91 398.87L523.22 476.16C523.98 477.74 524.89 479.23 525.94 480.63C527 482.03 528.19 483.32 529.49 484.48C530.8 485.65 532.22 486.68 533.73 487.57C535.23 488.45 536.83 489.19 538.48 489.76C537.42 489.1 536.41 488.37 535.45 487.57C534.5 486.77 533.6 485.9 532.76 484.97C531.93 484.04 531.16 483.06 530.46 482.02C529.77 480.99 529.14 479.9 528.6 478.78Z" />
	<path id="Layer" class="shp1" d="M524.33 687.68L540.41 687.68L540.41 692.63L524.33 692.63L524.33 687.68Z" />
	<path id="Layer" class="shp2" d="M524.33 687.68L540.41 687.68L540.41 692.63L524.33 692.63L524.33 687.68Z" />
	<path id="Layer" class="shp1" d="M212.18 638.69L192.41 642.1C192.44 642.27 192.48 642.44 192.51 642.61C192.55 642.78 192.6 642.95 192.64 643.11C192.69 643.28 192.74 643.45 192.8 643.61C192.86 643.78 192.92 643.94 192.98 644.1C193.37 645.1 214.98 643.33 214.98 643.33L212.9 642.9L212.18 638.69Z" />
	<path id="Layer" class="shp2" d="M212.18 638.69L192.41 642.1C192.44 642.27 192.48 642.44 192.51 642.61C192.55 642.78 192.6 642.95 192.64 643.11C192.69 643.28 192.74 643.45 192.8 643.61C192.86 643.78 192.92 643.94 192.98 644.1C193.37 645.1 214.98 643.33 214.98 643.33L212.9 642.9L212.18 638.69Z" />
	<path id="Layer" class="shp7" d="M137.59 687.16C120.15 687.16 99.4 663.63 99.4 634.61C99.4 614.72 102.81 596.46 110.57 586.95C100.57 595.02 96.19 615.37 96.19 637.82C96.19 666.82 116.94 690.37 134.38 690.37C140.28 690.37 145.13 687.71 148.99 683.07C148.2 683.73 147.35 684.32 146.46 684.83C145.56 685.35 144.62 685.78 143.65 686.13C142.68 686.47 141.68 686.74 140.67 686.91C139.65 687.08 138.62 687.17 137.59 687.16Z" />
	<path id="Layer" class="shp7" d="M600.56 757.48C584.94 757.48 566.36 729.23 566.36 694.38C566.36 670.49 569.36 648.57 576.36 637.15C567.36 646.84 563.49 671.28 563.49 698.24C563.49 733.09 582.07 761.34 597.69 761.34C602.97 761.34 607.32 758.14 610.77 752.58C607.87 755.74 604.47 757.48 600.56 757.48Z" />
	<path id="Layer" class="shp7" d="M786.3 622.1C776.24 632.17 752.22 624.42 732.57 604.77C712.92 585.12 705.17 561.11 715.24 551.04C725.31 540.98 749.32 548.72 768.97 568.37C788.62 588.02 796.37 612.04 786.3 622.1Z" />
	<path id="Layer" class="shp8" d="M787.16 621.25C777.1 631.31 753.08 623.57 733.43 603.92C713.78 584.27 706.03 560.25 716.1 550.18C726.17 540.12 750.18 547.87 769.83 567.52C789.48 587.16 797.23 611.18 787.16 621.25Z" />
	<path id="Layer" class="shp7" d="M784.25 615.12C776.87 622.5 757.43 614.99 740.76 598.31C724.08 581.64 716.57 562.2 723.95 554.82C731.33 547.44 750.77 554.95 767.44 571.63C784.11 588.3 791.63 607.74 784.25 615.12Z" />
	<path id="Layer" class="shp9" d="M784.25 614.25C776.87 621.63 757.43 614.12 740.76 597.44C724.08 580.77 716.57 561.33 723.95 553.95C731.33 546.57 750.77 554.08 767.44 570.76C784.12 587.43 791.63 606.87 784.25 614.25Z" />
	<path id="Layer" class="shp1" d="M1052.49 751.29C1052.49 751.29 1010.21 748.74 1015.19 778.37C1015.19 778.37 1014.19 783.6 1018.95 785.98C1018.95 785.98 1019.02 783.79 1023.29 784.53C1023.67 784.59 1024.05 784.65 1024.43 784.69C1024.81 784.73 1025.19 784.76 1025.58 784.78C1025.96 784.8 1026.35 784.8 1026.73 784.8C1027.11 784.79 1027.5 784.78 1027.88 784.75C1028.39 784.72 1028.9 784.64 1029.41 784.52C1029.91 784.4 1030.4 784.25 1030.88 784.05C1031.35 783.85 1031.81 783.62 1032.25 783.35C1032.69 783.08 1033.1 782.77 1033.49 782.43L1033.49 782.43C1033.49 782.43 1045.38 777.52 1050 758.1C1050 758.1 1053.42 753.86 1053.28 752.77L1046.15 755.77C1046.15 755.77 1048.59 760.92 1046.67 765.2C1046.67 765.2 1046.44 755.96 1045.07 756.2C1044.79 756.2 1041.36 757.98 1041.36 757.98C1041.36 757.98 1045.56 766.98 1042.36 773.46C1042.36 773.46 1043.56 762.46 1040.02 758.63L1035.02 761.56C1035.02 761.56 1039.92 770.82 1036.6 778.38C1036.6 778.38 1037.45 766.79 1033.96 762.27L1029.41 765.82C1029.41 765.82 1034.02 774.95 1031.21 781.22C1031.21 781.22 1030.84 767.73 1028.42 766.71C1028.42 766.71 1024.42 770.22 1023.84 771.66C1023.84 771.66 1026.99 778.28 1025.03 781.78C1025.03 781.78 1023.83 772.78 1022.85 772.78C1022.85 772.78 1018.85 778.78 1018.47 782.78C1018.47 782.78 1018.64 776.71 1021.89 772.17C1021.32 772.28 1020.76 772.43 1020.22 772.62C1019.67 772.8 1019.14 773.03 1018.62 773.3C1018.11 773.57 1017.62 773.87 1017.15 774.21C1016.68 774.55 1016.24 774.92 1015.82 775.32C1015.4 775.72 1016.43 771.11 1022.82 770.74C1022.82 770.74 1026.1 766.22 1026.97 765.95C1026.97 765.95 1020.57 765.41 1016.69 767.13C1016.69 767.13 1020.11 763.13 1028.15 764.96L1032.64 761.3C1032.64 761.3 1024.21 760.14 1020.64 761.42C1020.64 761.42 1024.75 757.9 1033.85 760.42L1038.74 757.5C1038.74 757.5 1031.56 755.95 1027.28 756.5C1027.28 756.5 1031.79 754.06 1040.18 756.7L1043.67 755.13C1043.67 755.13 1038.41 754.13 1036.87 753.94C1035.33 753.75 1035.24 753.35 1035.24 753.35C1036.07 753.21 1036.91 753.13 1037.75 753.11C1038.59 753.09 1039.43 753.12 1040.26 753.21C1041.1 753.31 1041.92 753.46 1042.74 753.66C1043.55 753.87 1044.35 754.13 1045.13 754.45C1045.91 754.77 1052.61 751.76 1052.49 751.29Z" />
	<path id="Layer" class="shp0" d="M1023.37 793.62C1006.82 793.62 993.45 791.36 993.45 788.56C993.45 785.76 1006.82 783.5 1023.37 783.5C1039.92 783.5 1053.29 785.76 1053.29 788.56C1053.29 791.36 1039.92 793.62 1023.37 793.62Z" />
	<path id="Layer" class="shp0" d="M1117.17 697.09C1107.84 697.09 1100.3 695.82 1100.3 694.24C1100.3 692.66 1107.84 691.39 1117.17 691.39C1126.5 691.39 1134.04 692.66 1134.04 694.24C1134.04 695.82 1126.5 697.09 1117.17 697.09Z" />
	<path id="Layer" class="shp1" d="M992.9 687.72C992.9 687.72 964.12 685.99 967.51 706.15C967.42 706.66 967.42 707.18 967.49 707.69C967.57 708.2 967.72 708.7 967.95 709.16C968.18 709.62 968.48 710.05 968.84 710.42C969.2 710.79 969.61 711.1 970.07 711.34C970.53 711.58 970.12 709.84 973.07 710.34C973.33 710.38 973.59 710.42 973.85 710.45C974.11 710.48 974.37 710.5 974.63 710.51C974.89 710.52 975.15 710.53 975.42 710.52C975.68 710.52 975.94 710.51 976.2 710.49C976.55 710.47 976.9 710.41 977.24 710.33C977.58 710.25 977.91 710.14 978.24 710.01C978.56 709.88 978.88 709.72 979.17 709.53C979.47 709.35 979.76 709.14 980.02 708.91L980.02 708.91C980.02 708.91 988.11 705.57 991.26 692.35C991.26 692.35 993.58 689.46 993.49 688.72L988.64 690.79C988.64 690.79 990.29 694.3 988.99 697.21C988.99 697.21 988.83 690.92 987.9 691.07C987.71 691.07 985.38 692.28 985.38 692.28C985.38 692.28 988.23 698.39 986.08 702.82C986.08 702.82 986.89 695.3 984.48 692.73L981.07 694.73C981.07 694.73 984.4 701.04 982.14 706.18C982.14 706.18 982.72 698.29 980.35 695.18L977.25 697.59C977.25 697.59 980.38 703.81 978.47 708.07C978.47 708.07 978.22 698.89 976.58 698.19C976.58 698.19 973.87 700.58 973.45 701.57C973.45 701.57 975.6 706.08 974.27 708.46C974.27 708.46 973.45 702.34 972.78 702.31C972.78 702.31 970.08 706.31 969.78 709.14C969.81 708.5 969.89 707.87 970 707.24C970.12 706.61 970.28 705.99 970.47 705.38C970.67 704.77 970.91 704.17 971.18 703.6C971.45 703.02 971.76 702.46 972.11 701.92C971.72 701.99 971.34 702.1 970.97 702.22C970.6 702.35 970.23 702.51 969.88 702.69C969.53 702.87 969.2 703.08 968.88 703.31C968.56 703.53 968.25 703.79 967.97 704.06C967.69 704.33 968.39 701.2 972.77 700.95C972.77 700.95 975.01 697.87 975.6 697.68C975.6 697.68 971.25 697.32 968.6 698.49C968.6 698.49 970.93 695.79 976.4 697.02L979.46 694.52C979.46 694.52 973.72 693.73 971.29 694.6C971.29 694.6 974.09 692.21 980.29 693.95L983.62 691.95C983.62 691.95 978.73 690.9 975.82 691.28C975.82 691.28 978.89 689.62 984.6 691.42L986.98 690.35C986.98 690.35 983.4 689.64 982.35 689.53C981.3 689.42 981.24 689.13 981.24 689.13C981.8 689.04 982.37 688.98 982.95 688.97C983.52 688.95 984.09 688.97 984.66 689.04C985.23 689.1 985.79 689.2 986.34 689.34C986.9 689.49 987.44 689.66 987.97 689.88C988.5 690.1 993.02 688.04 992.9 687.72Z" />
	<path id="Layer" class="shp0" d="M973.08 716.53C961.82 716.53 952.71 714.99 952.71 713.09C952.71 711.19 961.82 709.65 973.08 709.65C984.34 709.65 993.45 711.19 993.45 713.09C993.45 714.99 984.34 716.53 973.08 716.53Z" />
	<path id="Layer" class="shp0" d="M29.92 749.4C13.37 749.4 0 747.14 0 744.34C0 741.54 13.37 739.28 29.92 739.28C46.47 739.28 59.84 741.54 59.84 744.34C59.84 747.14 46.47 749.4 29.92 749.4Z" />
	<path id="Layer" class="shp13" d="M9.83 720.83C9.83 720.83 26.89 720.31 32.04 716.64C37.19 712.97 58.29 708.64 59.57 714.48C60.85 720.32 85.22 743.7 65.95 743.85C46.68 744 21.18 740.85 16.04 737.72C10.9 734.59 9.83 720.83 9.83 720.83Z" />
	<path id="Layer" class="shp2" d="M66.29 741.81C47.02 741.96 21.52 738.81 16.39 735.68C12.48 733.3 10.92 724.75 10.39 720.81L9.82 720.81C9.82 720.81 10.9 734.58 16.03 737.7C21.16 740.82 46.67 743.99 65.94 743.83C71.5 743.83 73.42 741.83 73.32 738.83C72.55 740.67 70.43 741.77 66.29 741.81Z" />
	<path id="Layer" class="shp14" d="M655.02 467.79C657.88 460.11 652.78 452.02 652.78 452.02L652.37 434.44C654.62 429.79 646.87 418.27 646.87 418.27C646.87 418.27 645.03 409.57 643.4 408.77C641.77 407.97 639.94 404.32 639.94 404.32C639.93 404.07 639.89 403.82 639.82 403.58C639.75 403.34 639.64 403.12 639.5 402.91C639.36 402.7 639.2 402.51 639.01 402.34C638.82 402.18 638.61 402.05 638.38 401.94C637.66 400.63 636.96 399.3 636.28 397.97C635.61 396.63 634.96 395.28 634.34 393.91C633.72 392.55 633.13 391.18 632.56 389.79C631.99 388.4 631.45 387.01 630.94 385.6C629.8 382.48 628.79 379.15 629.44 375.89C629.49 375.68 629.54 375.48 629.59 375.28C629.64 375.07 629.7 374.87 629.76 374.67C629.82 374.46 629.89 374.26 629.95 374.06C630.02 373.87 630.09 373.67 630.17 373.47C630.24 373.3 630.3 373.14 630.36 372.97C630.42 372.8 630.36 372.83 630.44 372.77L630.51 372.59C630.7 372.19 630.87 371.77 631.02 371.35C631.16 370.93 631.29 370.5 631.39 370.06C631.49 369.62 631.57 369.18 631.62 368.74C631.67 368.29 631.7 367.85 631.71 367.4C631.48 363.65 628.03 360.91 624.6 359.32C621.17 357.73 617.32 356.7 614.6 354.05C611.22 350.74 610.44 345.71 609.6 341.05C608.76 336.39 607.6 331.36 603.78 328.56C600.4 326.08 595.78 326.03 591.65 326.73C590.26 326.97 588.88 327.28 587.52 327.66C586.16 328.04 584.82 328.5 583.5 329.02C582.19 329.54 580.9 330.14 579.65 330.79C578.4 331.45 577.19 332.17 576.01 332.96C571.46 336.02 567.4 340.07 562.14 341.66C560.21 342.24 558.14 342.47 556.26 343.1C555.26 343.46 554.29 343.93 553.39 344.5C552.49 345.08 551.66 345.74 550.9 346.5C550.15 347.25 549.48 348.09 548.91 348.99C548.34 349.89 547.87 350.86 547.51 351.86L547.51 351.86C547.44 352.05 547.39 352.24 547.32 352.43C547.25 352.62 547.16 352.9 547.09 353.14C547.02 353.38 546.99 353.55 546.95 353.75C546.91 353.95 546.83 354.22 546.79 354.46C546.75 354.7 546.72 354.87 546.7 355.07C546.68 355.27 546.63 355.56 546.61 355.8C546.59 356.04 546.61 356.2 546.61 356.4C546.61 356.6 546.61 356.91 546.61 357.16C546.06 357.67 545.54 358.21 545.03 358.76C544.52 359.31 544.03 359.88 543.56 360.46C543.1 361.05 542.65 361.65 542.22 362.27C541.8 362.88 541.39 363.51 541.01 364.16C534.29 374.82 525.92 390.23 522.2 397.16L522.02 397.5L522.02 397.29C522.02 397.29 505.61 413.76 515.19 411.54C515.35 411.5 515.52 411.46 515.69 411.43C515.85 411.4 516.02 411.36 516.19 411.33C516.35 411.3 516.52 411.28 516.69 411.25C516.85 411.22 517.02 411.2 517.19 411.18L517.02 413.06L517.02 413.11C515.49 415.03 508.86 421.67 521.19 426.59C531.42 430.67 552.33 431.71 559.19 431.95L558.59 434.84C547.99 443.53 552.07 453.44 551.87 459.91C551.67 466.38 550.64 474.06 550.64 474.06C550.64 474.06 546.15 481.34 546.77 485.18C547.39 489.02 543.51 495.29 543.51 495.29C543.51 495.29 537.8 501.55 538.41 505.6C539.02 509.65 537.41 514.89 537.41 514.89C537.41 514.89 533.54 521.97 535.17 526.01C536.8 530.05 535.99 532.28 535.99 532.28C535.99 532.28 527.63 533.49 526.99 537.94C526.35 542.39 518.84 544 518.84 544C518.84 544 505.39 548.85 502.12 551.08C498.85 553.31 481.54 569.47 481.54 569.47C481.54 569.47 464.15 587.36 463.23 589.16C462.31 590.96 452.07 598.71 456.81 605.99C457.05 606.35 457.29 606.72 457.54 607.08C458.77 608.87 460.1 610.6 461.51 612.26C462.92 613.91 464.42 615.49 466 616.99C467.58 618.49 469.24 619.9 470.97 621.22C472.7 622.55 474.49 623.78 476.35 624.91C479.63 626.91 482.9 629.19 483.87 630.7C486.01 634.04 521.79 656.93 521.79 656.93C521.79 656.93 537.51 670.75 547.63 680.38L548.4 685.01C548.27 685.21 548.14 685.42 548.01 685.66C547.96 685.91 547.94 686.17 547.96 686.42C547.98 686.68 548.04 686.93 548.13 687.17C548.21 687.41 548.33 687.64 548.48 687.85C548.63 688.05 548.81 688.24 549.01 688.4L549.15 689.22C549.15 689.22 553.23 723.59 556.9 739.66C559.33 750.29 557.6 758.31 556.16 762.52C552.36 758.31 551.91 756.79 551.91 756.79C551.62 757.47 551.35 758.16 551.1 758.85C550.84 759.55 550.61 760.25 550.39 760.96C550.18 761.67 549.98 762.38 549.8 763.1C549.62 763.81 549.45 764.53 549.31 765.26C549.25 765.69 549.21 766.09 549.19 766.47C549.16 766.47 549.14 766.47 549.11 766.47C549.09 766.48 549.06 766.49 549.04 766.5C549.02 766.51 548.99 766.52 548.97 766.54C548.95 766.55 548.94 766.57 548.92 766.59L547.49 768.59C545.93 770.74 544.56 773.03 543.17 775.29C539.96 780.5 529.89 782.93 529.89 782.93C529.68 783.05 529.46 783.15 529.24 783.25C529.03 783.35 528.8 783.45 528.58 783.53C528.35 783.61 528.12 783.69 527.89 783.75C527.66 783.82 527.43 783.88 527.19 783.93C526.48 784.05 525.77 784.15 525.06 784.22C524.35 784.29 523.63 784.34 522.92 784.36C522.2 784.38 521.49 784.38 520.77 784.35C520.06 784.32 519.34 784.27 518.63 784.19C518.41 784.22 518.2 784.26 517.99 784.3C517.77 784.34 517.56 784.39 517.35 784.44C517.14 784.49 516.93 784.55 516.72 784.61C516.51 784.67 516.31 784.74 516.1 784.81C515.93 784.87 515.77 784.93 515.6 784.99C515.44 785.06 515.28 785.12 515.12 785.2C514.96 785.27 514.8 785.35 514.64 785.43C514.49 785.51 514.33 785.6 514.18 785.69L514.18 785.69C509.79 788.53 511.39 793.77 511.39 793.77L511.39 793.77L511.39 793.77L511.5 793.84L511.61 793.91L511.79 794.02L512.06 794.19L512.29 794.32L512.53 794.47L512.78 794.61L513.09 794.78L513.35 794.93L514.01 795.28L514.32 795.45L514.75 795.67L515.1 795.84L515.57 796.07L516.03 796.28C516.29 796.41 516.56 796.53 516.84 796.65L517.31 796.86L517.85 797.08L518.37 797.29L518.91 797.5L519.91 797.87L520.41 798.04L521.12 798.28L521.66 798.45L522.48 798.69L522.93 798.81C523.34 798.93 523.76 799.03 524.19 799.13L524.61 799.22C524.94 799.3 525.27 799.37 525.61 799.43L525.86 799.49L526.07 799.49C526.43 799.56 526.79 799.61 527.16 799.67L527.48 799.67L528.92 799.84L529.25 799.84C529.63 799.84 530.01 799.9 530.4 799.92L530.88 799.92L531.98 799.92L532.42 799.92C532.92 799.92 533.42 799.9 533.92 799.86L534.23 799.86L535.46 799.74L536 799.66L537.08 799.48L537.59 799.38C538.11 799.27 538.59 799.15 539.16 799.01C542 798.23 544.87 797.59 547.77 797.07C550.67 796.56 553.59 796.17 556.52 795.92C559.46 795.67 562.4 795.55 565.34 795.57C568.29 795.58 571.23 795.73 574.16 796.01C583.16 796.77 585.42 793.69 585.42 793.69C585.46 793.63 585.5 793.57 585.54 793.5C585.58 793.44 585.62 793.38 585.66 793.31C585.7 793.25 585.73 793.19 585.77 793.12C585.8 793.05 585.84 792.99 585.87 792.92C585.88 792.89 585.89 792.87 585.91 792.84C585.92 792.82 585.93 792.79 585.94 792.77C585.95 792.74 585.96 792.72 585.97 792.69C585.98 792.66 585.99 792.64 586 792.61C586.02 792.56 586.04 792.52 586.06 792.47C586.08 792.43 586.1 792.38 586.11 792.33C586.13 792.29 586.15 792.24 586.16 792.19C586.18 792.14 586.2 792.1 586.21 792.05C586.21 791.92 586.29 791.79 586.32 791.66C586.35 791.53 586.41 791.27 586.45 791.07C586.49 790.87 586.45 790.79 586.52 790.65C586.59 790.51 586.52 790.49 586.52 790.41C586.53 790.36 586.53 790.31 586.54 790.26C586.54 790.21 586.55 790.16 586.55 790.12C586.56 790.07 586.56 790.02 586.56 789.97C586.57 789.92 586.57 789.87 586.57 789.82C586.59 789.39 586.6 788.95 586.59 788.52C586.59 788.09 586.57 787.65 586.54 787.22C586.51 786.79 586.47 786.36 586.41 785.92C586.36 785.49 586.29 785.07 586.21 784.64C586.03 783.7 585.82 782.76 585.59 781.83C585.36 780.9 585.11 779.98 584.84 779.06C584.56 778.14 584.27 777.23 583.95 776.33C583.63 775.42 583.29 774.53 582.93 773.64L582.29 774.08C582.22 773.75 582.15 773.42 582.08 773.08C579.88 761.23 579.08 732.8 579.08 729.79L579.08 729.79C579.39 729.79 579.69 729.77 580 729.72C580.3 729.67 580.6 729.6 580.89 729.5C581.18 729.4 581.46 729.27 581.73 729.12C582 728.97 582.26 728.8 582.5 728.61C582.67 728.47 582.76 728.38 582.76 728.38C590.4 722.17 586.65 693.81 584.13 689.87C581.61 685.93 581.13 665.69 580.23 659.25C579.8 656.19 578.23 655.3 576.1 655.25C576.03 655.25 575.95 655.24 575.88 655.24C575.8 655.24 575.73 655.24 575.66 655.24C575.58 655.24 575.51 655.24 575.43 655.24C575.36 655.24 575.28 655.25 575.21 655.25C574.91 649.25 575.79 635.14 576.47 625.51L576.47 625.51C576.47 624.89 576.56 624.28 576.6 623.7L578.53 623.8L581.38 606.8C581.38 606.8 583.02 600.6 593.02 582.81C603.02 565.02 604.02 545.62 604.02 545.62C604.02 545.62 607.08 539.76 606.26 537.13C606.05 536.45 605.72 534.53 605.33 532.04C606.18 531.53 607.04 531.03 607.91 530.56C608.78 530.08 609.67 529.63 610.56 529.19C611.45 528.76 612.35 528.34 613.26 527.94C614.17 527.55 615.09 527.17 616.02 526.82C626.71 522.5 634.73 514.41 638.45 510.4L639.04 509.76C639.27 510.11 639.49 510.46 639.71 510.82C639.94 511.17 640.15 511.53 640.36 511.89C640.57 512.25 640.78 512.61 640.98 512.98C641.18 513.35 641.37 513.72 641.56 514.09C641.75 514.46 650.33 508.02 654.81 502.76C654.93 502.61 655.05 502.46 655.15 502.3C655.26 502.14 655.36 501.97 655.46 501.81C655.55 501.64 655.64 501.47 655.72 501.29C655.8 501.12 655.87 500.94 655.94 500.76C658.64 494.04 655.88 479.67 655.88 479.67C659.39 473.46 655.02 467.79 655.02 467.79Z" />
	<g id="Layer" style="opacity: 0.102">
		<path id="Layer" class="shp15" d="M610.89 508.69C610.48 509.44 607.54 511.2 603.96 513.14C603.63 510.53 603.39 508.56 603.34 507.95C603.13 505.72 607.89 495.73 607.89 495.73C607.89 495.73 617 483.51 616.79 481.67C616.58 479.83 620.31 474.55 620.31 474.55L628.57 461.16C628.34 461.67 628.19 462.2 628.11 462.76C628.03 463.31 628.03 463.86 628.1 464.42C628.18 464.97 628.33 465.51 628.55 466.02C628.77 466.52 629.07 467 629.42 467.43C631.91 470.69 629.83 477.21 629.83 477.21L630.34 485.43L630.34 486.25C630.05 486.54 628.72 487.81 625.78 490.46C623.07 492.9 623.55 493.65 623.86 493.85C623.24 494.95 624 495.14 624 495.14C624.24 495.14 624.48 495.12 624.72 495.08L624.06 495.69C619.02 500.41 611.63 507.36 610.89 508.69Z" />
	</g>
</svg>