<svg xmlns="http://www.w3.org/2000/svg" viewBox="0 0 1035 707" width="1035" height="707">
	<style>
		tspan { white-space:pre }
		.shp0 { fill: #f2f2f2 } 
		.shp1 { opacity: 0.031;fill: #000000 } 
		.shp2 { fill: #36334a } 
		.shp3 { opacity: 0.102;fill: #000000 } 
		.shp4 { fill: #3f3d56 } 
		.shp5 { fill: #ef9d10 } 
		.shp6 { opacity: 0.2;fill: #000000 } 
		.shp7 { opacity: 0.2;fill: #ef9d10 } 
		.shp8 { fill: none;stroke: #3f3d56;stroke-width: 4 } 
		.shp9 { fill: #656380 } 
	</style>
	<path id="Layer" fill-rule="evenodd" class="shp0" d="M654.99 197.85C655.15 197.92 655.3 198.02 655.42 198.15C655.54 198.27 655.64 198.42 655.71 198.58C655.77 198.74 655.81 198.91 655.81 199.09L655.81 567.61C655.81 567.79 655.77 567.96 655.7 568.13C655.64 568.29 655.54 568.44 655.41 568.56C655.29 568.69 655.14 568.79 654.98 568.85C654.81 568.92 654.64 568.96 654.46 568.96L573.12 568.96C572.94 568.96 572.77 568.92 572.6 568.85C572.44 568.79 572.29 568.69 572.17 568.56C572.04 568.44 571.94 568.29 571.88 568.13C571.81 567.96 571.77 567.79 571.77 567.61L571.77 518.03C571.77 517.85 571.74 517.68 571.67 517.51C571.6 517.35 571.5 517.2 571.37 517.08C571.25 516.95 571.1 516.85 570.94 516.78C570.77 516.71 570.6 516.68 570.42 516.68L536.06 516.68C535.88 516.68 535.71 516.72 535.55 516.79C535.38 516.85 535.24 516.95 535.11 517.08C534.99 517.2 534.89 517.35 534.82 517.52C534.75 517.68 534.72 517.85 534.72 518.03L534.72 567.61C534.72 567.79 534.68 567.96 534.61 568.13C534.55 568.29 534.45 568.44 534.32 568.56C534.2 568.69 534.05 568.79 533.89 568.85C533.72 568.92 533.55 568.96 533.37 568.96L372.64 568.96C372.46 568.96 372.29 568.92 372.13 568.85C371.96 568.79 371.82 568.69 371.69 568.56C371.57 568.44 371.47 568.29 371.4 568.12C371.33 567.96 371.3 567.79 371.3 567.61L371.3 518.03C371.3 517.85 371.26 517.68 371.19 517.51C371.13 517.35 371.03 517.2 370.9 517.08C370.78 516.95 370.63 516.85 370.47 516.79C370.3 516.72 370.13 516.68 369.95 516.68L335.59 516.68C335.41 516.68 335.24 516.72 335.07 516.79C334.91 516.85 334.76 516.95 334.64 517.08C334.51 517.2 334.41 517.35 334.35 517.51C334.28 517.68 334.24 517.85 334.24 518.03L334.24 567.61C334.24 567.79 334.21 567.96 334.14 568.13C334.07 568.29 333.97 568.44 333.84 568.56C333.72 568.69 333.57 568.79 333.41 568.86C333.24 568.93 333.07 568.96 332.89 568.96L251.55 568.96C251.37 568.96 251.2 568.92 251.04 568.85C250.87 568.79 250.73 568.69 250.6 568.56C250.48 568.44 250.38 568.29 250.31 568.12C250.24 567.96 250.21 567.79 250.21 567.61L250.21 199.1C250.21 198.92 250.24 198.75 250.31 198.59C250.38 198.42 250.48 198.27 250.6 198.15C250.73 198.02 250.87 197.92 251.04 197.86C251.2 197.79 251.37 197.75 251.55 197.75L373.94 197.75L373.94 169.99C373.94 169.12 374.11 168.25 374.45 167.45C374.78 166.64 375.27 165.91 375.88 165.29C376.5 164.68 377.23 164.19 378.04 163.86C378.84 163.52 379.71 163.35 380.58 163.35L424.89 163.35L424.89 133.77C424.89 133.22 425 132.68 425.21 132.17C425.42 131.66 425.73 131.2 426.11 130.81C426.5 130.43 426.96 130.12 427.47 129.91C427.98 129.7 428.52 129.59 429.07 129.59L477.62 129.59C478.17 129.59 478.71 129.7 479.22 129.91C479.73 130.12 480.19 130.43 480.58 130.81C480.96 131.2 481.27 131.66 481.48 132.17C481.69 132.68 481.8 133.22 481.8 133.77L481.8 163.34L519.49 163.34C520.36 163.34 521.23 163.51 522.03 163.85C522.84 164.18 523.57 164.67 524.19 165.28C524.8 165.9 525.29 166.63 525.62 167.44C525.96 168.24 526.13 169.11 526.13 169.98L526.13 197.74L654.48 197.74C654.66 197.74 654.83 197.78 654.99 197.85ZM319.71 482.35C319.71 482.17 319.68 482 319.61 481.84C319.54 481.67 319.44 481.52 319.32 481.4C319.19 481.27 319.05 481.17 318.88 481.11C318.72 481.04 318.55 481 318.37 481L268.1 481C267.92 481 267.75 481.03 267.58 481.1C267.42 481.17 267.27 481.27 267.15 481.4C267.02 481.52 266.92 481.67 266.85 481.83C266.78 482 266.75 482.17 266.75 482.35L266.75 499.46C266.75 499.64 266.78 499.81 266.85 499.98C266.92 500.14 267.02 500.29 267.15 500.41C267.27 500.54 267.42 500.63 267.58 500.7C267.75 500.77 267.92 500.8 268.1 500.8L318.34 500.8C318.52 500.8 318.69 500.77 318.85 500.7C319.02 500.63 319.16 500.53 319.29 500.41C319.41 500.28 319.51 500.14 319.58 499.97C319.65 499.81 319.68 499.64 319.68 499.46L319.71 482.35ZM319.71 437.97C319.71 437.79 319.68 437.62 319.61 437.45C319.54 437.29 319.45 437.14 319.32 437.02C319.2 436.89 319.05 436.79 318.89 436.72C318.72 436.65 318.55 436.62 318.37 436.62L268.1 436.62C267.92 436.62 267.75 436.65 267.58 436.72C267.42 436.79 267.27 436.89 267.14 437.01C267.02 437.14 266.92 437.29 266.85 437.45C266.78 437.62 266.75 437.79 266.75 437.97L266.75 455.12C266.75 455.3 266.78 455.47 266.85 455.64C266.92 455.8 267.02 455.95 267.14 456.08C267.27 456.2 267.42 456.3 267.58 456.37C267.75 456.44 267.92 456.47 268.1 456.47L318.34 456.47C318.52 456.47 318.69 456.44 318.86 456.37C319.02 456.3 319.17 456.2 319.29 456.07C319.42 455.95 319.51 455.8 319.58 455.64C319.65 455.47 319.68 455.3 319.68 455.12L319.71 437.97ZM319.71 393.63C319.71 393.45 319.68 393.28 319.61 393.12C319.54 392.95 319.44 392.8 319.32 392.68C319.19 392.55 319.05 392.45 318.88 392.39C318.72 392.32 318.55 392.28 318.37 392.28L268.1 392.28C267.92 392.28 267.75 392.31 267.58 392.38C267.42 392.45 267.27 392.55 267.15 392.68C267.02 392.8 266.92 392.95 266.85 393.11C266.78 393.28 266.75 393.45 266.75 393.63L266.75 410.79C266.75 410.97 266.78 411.14 266.85 411.31C266.92 411.47 267.02 411.62 267.15 411.74C267.27 411.87 267.42 411.97 267.58 412.04C267.75 412.11 267.92 412.14 268.1 412.14L318.34 412.14C318.52 412.14 318.69 412.1 318.85 412.03C319.02 411.97 319.16 411.87 319.29 411.74C319.41 411.62 319.51 411.47 319.58 411.3C319.65 411.14 319.68 410.97 319.68 410.79L319.71 393.63ZM319.71 349.35C319.71 349.17 319.68 349 319.61 348.83C319.54 348.67 319.45 348.52 319.32 348.4C319.2 348.27 319.05 348.17 318.89 348.1C318.72 348.03 318.55 348 318.37 348L268.1 348C267.92 348 267.75 348.03 267.58 348.1C267.42 348.17 267.27 348.27 267.14 348.39C267.02 348.52 266.92 348.67 266.85 348.83C266.78 349 266.75 349.17 266.75 349.35L266.75 366.45C266.75 366.63 266.78 366.8 266.85 366.97C266.92 367.13 267.02 367.28 267.14 367.41C267.27 367.53 267.42 367.63 267.58 367.7C267.75 367.77 267.92 367.8 268.1 367.8L318.34 367.8C318.52 367.8 318.69 367.77 318.86 367.7C319.02 367.63 319.17 367.53 319.29 367.4C319.42 367.28 319.51 367.13 319.58 366.97C319.65 366.8 319.68 366.63 319.68 366.45L319.71 349.35ZM319.71 304.96C319.71 304.78 319.68 304.61 319.61 304.45C319.54 304.28 319.44 304.14 319.32 304.01C319.19 303.89 319.05 303.79 318.88 303.72C318.72 303.65 318.55 303.62 318.37 303.62L268.1 303.62C267.92 303.62 267.75 303.65 267.58 303.72C267.42 303.79 267.27 303.88 267.15 304.01C267.02 304.13 266.92 304.28 266.85 304.44C266.78 304.61 266.75 304.78 266.75 304.96L266.75 322.12C266.75 322.3 266.78 322.47 266.85 322.64C266.92 322.8 267.02 322.95 267.15 323.07C267.27 323.2 267.42 323.3 267.58 323.37C267.75 323.44 267.92 323.47 268.1 323.47L318.34 323.47C318.52 323.47 318.69 323.43 318.85 323.36C319.02 323.3 319.16 323.2 319.29 323.07C319.41 322.95 319.51 322.8 319.58 322.63C319.65 322.47 319.68 322.3 319.68 322.12L319.71 304.96ZM319.71 260.63C319.71 260.45 319.68 260.28 319.61 260.12C319.54 259.95 319.44 259.8 319.32 259.68C319.19 259.55 319.05 259.45 318.88 259.39C318.72 259.32 318.55 259.28 318.37 259.28L268.1 259.28C267.92 259.28 267.75 259.31 267.58 259.38C267.42 259.45 267.27 259.55 267.15 259.68C267.02 259.8 266.92 259.95 266.85 260.11C266.78 260.28 266.75 260.45 266.75 260.63L266.75 277.79C266.75 277.97 266.78 278.14 266.85 278.31C266.92 278.47 267.02 278.62 267.15 278.74C267.27 278.87 267.42 278.96 267.58 279.03C267.75 279.1 267.92 279.13 268.1 279.13L318.34 279.13C318.52 279.13 318.69 279.1 318.85 279.03C319.02 278.96 319.16 278.86 319.29 278.74C319.41 278.61 319.51 278.47 319.58 278.3C319.65 278.14 319.68 277.97 319.68 277.79L319.71 260.63ZM319.71 216.35C319.71 216.17 319.68 216 319.61 215.83C319.54 215.67 319.45 215.52 319.32 215.4C319.2 215.27 319.05 215.17 318.89 215.1C318.72 215.03 318.55 215 318.37 215L268.1 215C267.92 215 267.75 215.03 267.58 215.1C267.42 215.17 267.27 215.27 267.14 215.39C267.02 215.52 266.92 215.67 266.85 215.83C266.78 216 266.75 216.17 266.75 216.35L266.75 233.45C266.75 233.63 266.78 233.8 266.85 233.97C266.92 234.13 267.02 234.28 267.14 234.41C267.27 234.53 267.42 234.63 267.58 234.7C267.75 234.77 267.92 234.8 268.1 234.8L318.34 234.8C318.52 234.8 318.69 234.77 318.86 234.7C319.02 234.63 319.17 234.53 319.29 234.4C319.42 234.28 319.51 234.13 319.58 233.97C319.65 233.8 319.68 233.63 319.68 233.45L319.71 216.35ZM438.79 482.35C438.79 482.17 438.76 482 438.69 481.83C438.62 481.67 438.52 481.52 438.39 481.4C438.27 481.27 438.12 481.17 437.96 481.1C437.79 481.03 437.62 481 437.44 481L387.2 481C387.02 481 386.85 481.04 386.68 481.11C386.52 481.17 386.37 481.27 386.25 481.4C386.12 481.52 386.02 481.67 385.96 481.83C385.89 482 385.85 482.17 385.85 482.35L385.85 499.45C385.85 499.63 385.89 499.8 385.96 499.96C386.02 500.13 386.12 500.27 386.25 500.4C386.37 500.52 386.52 500.62 386.69 500.69C386.85 500.76 387.02 500.79 387.2 500.79L437.44 500.79C437.62 500.79 437.79 500.76 437.96 500.69C438.12 500.62 438.27 500.53 438.39 500.4C438.52 500.28 438.62 500.13 438.69 499.97C438.76 499.8 438.79 499.63 438.79 499.45L438.79 482.35ZM438.79 437.97C438.79 437.79 438.76 437.62 438.69 437.45C438.62 437.29 438.52 437.14 438.4 437.01C438.27 436.89 438.12 436.79 437.96 436.72C437.79 436.65 437.62 436.62 437.44 436.62L387.2 436.62C387.02 436.62 386.85 436.65 386.68 436.72C386.52 436.79 386.37 436.89 386.25 437.02C386.12 437.14 386.02 437.29 385.95 437.45C385.88 437.62 385.85 437.79 385.85 437.97L385.85 455.11C385.85 455.29 385.88 455.46 385.95 455.63C386.02 455.79 386.12 455.94 386.25 456.06C386.37 456.19 386.52 456.29 386.68 456.36C386.85 456.43 387.02 456.46 387.2 456.46L437.44 456.46C437.62 456.46 437.79 456.43 437.96 456.36C438.12 456.29 438.27 456.19 438.4 456.07C438.52 455.94 438.62 455.79 438.69 455.63C438.76 455.46 438.79 455.29 438.79 455.11L438.79 437.97ZM438.79 393.63C438.79 393.45 438.76 393.28 438.69 393.11C438.62 392.95 438.52 392.8 438.39 392.68C438.27 392.55 438.12 392.45 437.96 392.38C437.79 392.31 437.62 392.28 437.44 392.28L387.2 392.28C387.02 392.28 386.85 392.32 386.68 392.39C386.52 392.45 386.37 392.55 386.25 392.68C386.12 392.8 386.02 392.95 385.96 393.11C385.89 393.28 385.85 393.45 385.85 393.63L385.85 410.78C385.85 410.96 385.89 411.13 385.96 411.3C386.02 411.46 386.12 411.61 386.25 411.73C386.37 411.86 386.52 411.96 386.68 412.02C386.85 412.09 387.02 412.13 387.2 412.13L437.44 412.13C437.62 412.13 437.79 412.1 437.96 412.03C438.12 411.96 438.27 411.86 438.39 411.73C438.52 411.61 438.62 411.46 438.69 411.3C438.76 411.13 438.79 410.96 438.79 410.78L438.79 393.63ZM438.79 349.35C438.79 349.17 438.76 349 438.69 348.83C438.62 348.67 438.52 348.52 438.4 348.39C438.27 348.27 438.12 348.17 437.96 348.1C437.79 348.03 437.62 348 437.44 348L387.2 348C387.02 348 386.85 348.03 386.68 348.1C386.52 348.17 386.37 348.27 386.25 348.4C386.12 348.52 386.02 348.67 385.95 348.83C385.88 349 385.85 349.17 385.85 349.35L385.85 366.44C385.85 366.62 385.88 366.79 385.95 366.96C386.02 367.12 386.12 367.27 386.25 367.39C386.37 367.52 386.52 367.62 386.68 367.69C386.85 367.76 387.02 367.79 387.2 367.79L437.44 367.79C437.62 367.79 437.79 367.76 437.96 367.69C438.12 367.62 438.27 367.52 438.4 367.4C438.52 367.27 438.62 367.12 438.69 366.96C438.76 366.79 438.79 366.62 438.79 366.44L438.79 349.35ZM438.79 304.96C438.79 304.78 438.76 304.61 438.69 304.44C438.62 304.28 438.52 304.13 438.39 304.01C438.27 303.88 438.12 303.79 437.96 303.72C437.79 303.65 437.62 303.62 437.44 303.62L387.2 303.62C387.02 303.62 386.85 303.65 386.69 303.72C386.52 303.79 386.37 303.89 386.25 304.01C386.12 304.14 386.02 304.28 385.96 304.45C385.89 304.61 385.85 304.78 385.85 304.96L385.85 322.11C385.85 322.29 385.89 322.46 385.96 322.63C386.02 322.79 386.12 322.94 386.25 323.06C386.37 323.19 386.52 323.29 386.68 323.35C386.85 323.42 387.02 323.46 387.2 323.46L437.44 323.46C437.62 323.46 437.79 323.43 437.96 323.36C438.12 323.29 438.27 323.19 438.39 323.06C438.52 322.94 438.62 322.79 438.69 322.63C438.76 322.46 438.79 322.29 438.79 322.11L438.79 304.96ZM438.79 260.63C438.79 260.45 438.76 260.28 438.69 260.11C438.62 259.95 438.52 259.8 438.39 259.68C438.27 259.55 438.12 259.45 437.96 259.38C437.79 259.31 437.62 259.28 437.44 259.28L387.2 259.28C387.02 259.28 386.85 259.32 386.68 259.39C386.52 259.45 386.37 259.55 386.25 259.68C386.12 259.8 386.02 259.95 385.96 260.11C385.89 260.28 385.85 260.45 385.85 260.63L385.85 277.78C385.85 277.96 385.89 278.13 385.96 278.29C386.02 278.46 386.12 278.6 386.25 278.73C386.37 278.85 386.52 278.95 386.69 279.02C386.85 279.09 387.02 279.12 387.2 279.12L437.44 279.12C437.62 279.12 437.79 279.09 437.96 279.02C438.12 278.95 438.27 278.86 438.39 278.73C438.52 278.61 438.62 278.46 438.69 278.3C438.76 278.13 438.79 277.96 438.79 277.78L438.79 260.63ZM438.79 216.35C438.79 216.17 438.76 216 438.69 215.83C438.62 215.67 438.52 215.52 438.4 215.39C438.27 215.27 438.12 215.17 437.96 215.1C437.79 215.03 437.62 215 437.44 215L387.2 215C387.02 215 386.85 215.03 386.68 215.1C386.52 215.17 386.37 215.27 386.25 215.4C386.12 215.52 386.02 215.67 385.95 215.83C385.88 216 385.85 216.17 385.85 216.35L385.85 233.44C385.85 233.62 385.88 233.79 385.95 233.96C386.02 234.12 386.12 234.27 386.25 234.39C386.37 234.52 386.52 234.62 386.68 234.69C386.85 234.76 387.02 234.79 387.2 234.79L437.44 234.79C437.62 234.79 437.79 234.76 437.96 234.69C438.12 234.62 438.27 234.52 438.4 234.4C438.52 234.27 438.62 234.12 438.69 233.96C438.76 233.79 438.79 233.62 438.79 233.44L438.79 216.35ZM520.18 482.35C520.18 482.17 520.15 482 520.08 481.83C520.01 481.67 519.91 481.52 519.78 481.4C519.66 481.27 519.51 481.17 519.35 481.1C519.18 481.03 519.01 481 518.83 481L468.59 481C468.41 481 468.24 481.04 468.07 481.11C467.91 481.17 467.76 481.27 467.64 481.4C467.51 481.52 467.41 481.67 467.35 481.83C467.28 482 467.24 482.17 467.24 482.35L467.24 499.44C467.24 499.62 467.28 499.79 467.35 499.95C467.41 500.12 467.51 500.26 467.64 500.39C467.76 500.51 467.91 500.61 468.08 500.68C468.24 500.75 468.41 500.78 468.59 500.78L518.83 500.78C519.01 500.78 519.18 500.75 519.35 500.68C519.51 500.61 519.66 500.52 519.78 500.39C519.91 500.27 520.01 500.12 520.08 499.96C520.15 499.79 520.18 499.62 520.18 499.44L520.18 482.35ZM520.18 437.97C520.18 437.79 520.15 437.62 520.08 437.45C520.01 437.29 519.91 437.14 519.79 437.01C519.66 436.89 519.51 436.79 519.35 436.72C519.18 436.65 519.01 436.62 518.83 436.62L468.59 436.62C468.41 436.62 468.24 436.65 468.07 436.72C467.91 436.79 467.76 436.89 467.64 437.02C467.51 437.14 467.41 437.29 467.34 437.45C467.27 437.62 467.24 437.79 467.24 437.97L467.24 455.1C467.24 455.28 467.27 455.45 467.34 455.62C467.41 455.78 467.51 455.93 467.64 456.05C467.76 456.18 467.91 456.28 468.07 456.35C468.24 456.42 468.41 456.45 468.59 456.45L518.83 456.45C519.01 456.45 519.18 456.42 519.35 456.35C519.51 456.28 519.66 456.18 519.79 456.06C519.91 455.93 520.01 455.78 520.08 455.62C520.15 455.45 520.18 455.28 520.18 455.1L520.18 437.97ZM520.18 393.63C520.18 393.45 520.15 393.28 520.08 393.11C520.01 392.95 519.91 392.8 519.78 392.68C519.66 392.55 519.51 392.45 519.35 392.38C519.18 392.31 519.01 392.28 518.83 392.28L468.59 392.28C468.41 392.28 468.24 392.32 468.07 392.39C467.91 392.45 467.76 392.55 467.64 392.68C467.51 392.8 467.41 392.95 467.35 393.11C467.28 393.28 467.24 393.45 467.24 393.63L467.24 410.77C467.24 410.95 467.28 411.12 467.35 411.29C467.41 411.45 467.51 411.6 467.64 411.72C467.76 411.85 467.91 411.95 468.07 412.01C468.24 412.08 468.41 412.12 468.59 412.12L518.83 412.12C519.01 412.12 519.18 412.09 519.35 412.02C519.51 411.95 519.66 411.85 519.78 411.72C519.91 411.6 520.01 411.45 520.08 411.29C520.15 411.12 520.18 410.95 520.18 410.77L520.18 393.63ZM520.18 349.35C520.18 349.17 520.15 349 520.08 348.83C520.01 348.67 519.91 348.52 519.79 348.39C519.66 348.27 519.51 348.17 519.35 348.1C519.18 348.03 519.01 348 518.83 348L468.59 348C468.41 348 468.24 348.03 468.07 348.1C467.91 348.17 467.76 348.27 467.64 348.4C467.51 348.52 467.41 348.67 467.34 348.83C467.27 349 467.24 349.17 467.24 349.35L467.24 366.43C467.24 366.61 467.27 366.78 467.34 366.95C467.41 367.11 467.51 367.26 467.64 367.38C467.76 367.51 467.91 367.61 468.07 367.68C468.24 367.75 468.41 367.78 468.59 367.78L518.83 367.78C519.01 367.78 519.18 367.75 519.35 367.68C519.51 367.61 519.66 367.51 519.79 367.39C519.91 367.26 520.01 367.11 520.08 366.95C520.15 366.78 520.18 366.61 520.18 366.43L520.18 349.35ZM520.18 304.96C520.18 304.78 520.15 304.61 520.08 304.44C520.01 304.28 519.91 304.13 519.78 304.01C519.66 303.88 519.51 303.79 519.35 303.72C519.18 303.65 519.01 303.62 518.83 303.62L468.59 303.62C468.41 303.62 468.24 303.65 468.08 303.72C467.91 303.79 467.76 303.89 467.64 304.01C467.51 304.14 467.41 304.28 467.35 304.45C467.28 304.61 467.24 304.78 467.24 304.96L467.24 322.1C467.24 322.28 467.28 322.45 467.35 322.62C467.41 322.78 467.51 322.93 467.64 323.05C467.76 323.18 467.91 323.28 468.07 323.34C468.24 323.41 468.41 323.45 468.59 323.45L518.83 323.45C519.01 323.45 519.18 323.42 519.35 323.35C519.51 323.28 519.66 323.18 519.78 323.05C519.91 322.93 520.01 322.78 520.08 322.62C520.15 322.45 520.18 322.28 520.18 322.1L520.18 304.96ZM520.18 260.63C520.18 260.45 520.15 260.28 520.08 260.11C520.01 259.95 519.91 259.8 519.78 259.68C519.66 259.55 519.51 259.45 519.35 259.38C519.18 259.31 519.01 259.28 518.83 259.28L468.59 259.28C468.41 259.28 468.24 259.32 468.07 259.39C467.91 259.45 467.76 259.55 467.64 259.68C467.51 259.8 467.41 259.95 467.35 260.11C467.28 260.28 467.24 260.45 467.24 260.63L467.24 277.77C467.24 277.95 467.28 278.12 467.35 278.28C467.41 278.45 467.51 278.59 467.64 278.72C467.76 278.84 467.91 278.94 468.08 279.01C468.24 279.08 468.41 279.11 468.59 279.11L518.83 279.11C519.01 279.11 519.18 279.08 519.35 279.01C519.51 278.94 519.66 278.85 519.78 278.72C519.91 278.6 520.01 278.45 520.08 278.29C520.15 278.12 520.18 277.95 520.18 277.77L520.18 260.63ZM520.18 216.35C520.18 216.17 520.15 216 520.08 215.83C520.01 215.67 519.91 215.52 519.79 215.39C519.66 215.27 519.51 215.17 519.35 215.1C519.18 215.03 519.01 215 518.83 215L468.59 215C468.41 215 468.24 215.03 468.07 215.1C467.91 215.17 467.76 215.27 467.64 215.4C467.51 215.52 467.41 215.67 467.34 215.83C467.27 216 467.24 216.17 467.24 216.35L467.24 233.43C467.24 233.61 467.27 233.78 467.34 233.95C467.41 234.11 467.51 234.26 467.64 234.38C467.76 234.51 467.91 234.61 468.07 234.68C468.24 234.75 468.41 234.78 468.59 234.78L518.83 234.78C519.01 234.78 519.18 234.75 519.35 234.68C519.51 234.61 519.66 234.51 519.79 234.39C519.91 234.26 520.01 234.11 520.08 233.95C520.15 233.78 520.18 233.61 520.18 233.43L520.18 216.35ZM639.29 482.35C639.29 482.17 639.25 482 639.18 481.83C639.12 481.67 639.02 481.52 638.89 481.4C638.77 481.27 638.62 481.17 638.46 481.11C638.29 481.04 638.12 481 637.94 481L587.7 481C587.52 481 587.35 481.03 587.18 481.1C587.02 481.17 586.87 481.27 586.75 481.4C586.62 481.52 586.52 481.67 586.45 481.83C586.38 482 586.35 482.17 586.35 482.35L586.35 499.43C586.35 499.61 586.38 499.78 586.45 499.95C586.52 500.11 586.62 500.26 586.75 500.38C586.87 500.51 587.02 500.6 587.18 500.67C587.35 500.74 587.52 500.77 587.7 500.77L637.94 500.77C638.12 500.77 638.29 500.74 638.45 500.67C638.62 500.6 638.77 500.5 638.89 500.38C639.02 500.25 639.12 500.11 639.18 499.94C639.25 499.78 639.29 499.61 639.29 499.43L639.29 482.35ZM639.29 437.97C639.29 437.79 639.26 437.62 639.19 437.45C639.12 437.29 639.02 437.14 638.89 437.02C638.77 436.89 638.62 436.79 638.46 436.72C638.29 436.65 638.12 436.62 637.94 436.62L587.7 436.62C587.52 436.62 587.35 436.65 587.18 436.72C587.02 436.79 586.87 436.89 586.74 437.01C586.62 437.14 586.52 437.29 586.45 437.45C586.38 437.62 586.35 437.79 586.35 437.97L586.35 455.09C586.35 455.27 586.38 455.44 586.45 455.61C586.52 455.77 586.62 455.92 586.74 456.05C586.87 456.17 587.02 456.27 587.18 456.34C587.35 456.41 587.52 456.44 587.7 456.44L637.94 456.44C638.12 456.44 638.29 456.41 638.46 456.34C638.62 456.27 638.77 456.17 638.89 456.04C639.02 455.92 639.12 455.77 639.19 455.61C639.26 455.44 639.29 455.27 639.29 455.09L639.29 437.97ZM639.29 393.63C639.29 393.45 639.25 393.28 639.18 393.11C639.12 392.95 639.02 392.8 638.89 392.68C638.77 392.55 638.62 392.45 638.46 392.39C638.29 392.32 638.12 392.28 637.94 392.28L587.7 392.28C587.52 392.28 587.35 392.31 587.18 392.38C587.02 392.45 586.87 392.55 586.75 392.68C586.62 392.8 586.52 392.95 586.45 393.11C586.38 393.28 586.35 393.45 586.35 393.63L586.35 410.76C586.35 410.94 586.38 411.11 586.45 411.28C586.52 411.44 586.62 411.59 586.75 411.71C586.87 411.84 587.02 411.94 587.18 412.01C587.35 412.08 587.52 412.11 587.7 412.11L637.94 412.11C638.12 412.11 638.29 412.07 638.46 412C638.62 411.94 638.77 411.84 638.89 411.71C639.02 411.59 639.12 411.44 639.18 411.28C639.25 411.11 639.29 410.94 639.29 410.76L639.29 393.63ZM639.31 349.35C639.31 349.17 639.28 349 639.21 348.83C639.14 348.67 639.04 348.52 638.91 348.4C638.79 348.27 638.64 348.17 638.48 348.1C638.31 348.03 638.14 348 637.96 348L587.72 348C587.54 348 587.37 348.03 587.2 348.1C587.04 348.17 586.89 348.27 586.76 348.39C586.64 348.52 586.54 348.67 586.47 348.83C586.4 349 586.37 349.17 586.37 349.35L586.37 366.45C586.37 366.62 586.41 366.79 586.48 366.95C586.54 367.11 586.64 367.26 586.77 367.38C586.89 367.5 587.03 367.6 587.19 367.67C587.35 367.73 587.53 367.77 587.7 367.77L637.94 367.77C638.12 367.77 638.29 367.74 638.46 367.67C638.62 367.6 638.77 367.5 638.89 367.37C639.02 367.25 639.12 367.1 639.19 366.94C639.26 366.77 639.29 366.6 639.29 366.42L639.31 349.35ZM639.29 304.96C639.29 304.78 639.25 304.61 639.18 304.45C639.12 304.28 639.02 304.14 638.89 304.01C638.77 303.89 638.62 303.79 638.45 303.72C638.29 303.65 638.12 303.62 637.94 303.62L587.7 303.62C587.52 303.62 587.35 303.65 587.18 303.72C587.02 303.79 586.87 303.88 586.75 304.01C586.62 304.13 586.52 304.28 586.45 304.44C586.38 304.61 586.35 304.78 586.35 304.96L586.35 322.09C586.35 322.27 586.38 322.44 586.45 322.61C586.52 322.77 586.62 322.92 586.75 323.04C586.87 323.17 587.02 323.27 587.18 323.34C587.35 323.41 587.52 323.44 587.7 323.44L637.94 323.44C638.12 323.44 638.29 323.4 638.46 323.33C638.62 323.27 638.77 323.17 638.89 323.04C639.02 322.92 639.12 322.77 639.18 322.61C639.25 322.44 639.29 322.27 639.29 322.09L639.29 304.96ZM639.29 260.63C639.29 260.45 639.25 260.28 639.18 260.11C639.12 259.95 639.02 259.8 638.89 259.68C638.77 259.55 638.62 259.45 638.46 259.39C638.29 259.32 638.12 259.28 637.94 259.28L587.7 259.28C587.52 259.28 587.35 259.31 587.18 259.38C587.02 259.45 586.87 259.55 586.75 259.68C586.62 259.8 586.52 259.95 586.45 260.11C586.38 260.28 586.35 260.45 586.35 260.63L586.35 277.76C586.35 277.94 586.38 278.11 586.45 278.28C586.52 278.44 586.62 278.59 586.75 278.71C586.87 278.84 587.02 278.93 587.18 279C587.35 279.07 587.52 279.1 587.7 279.1L637.94 279.1C638.12 279.1 638.29 279.07 638.45 279C638.62 278.93 638.77 278.83 638.89 278.71C639.02 278.58 639.12 278.44 639.18 278.27C639.25 278.11 639.29 277.94 639.29 277.76L639.29 260.63ZM639.31 216.35C639.31 216.17 639.28 216 639.21 215.83C639.14 215.67 639.04 215.52 638.91 215.4C638.79 215.27 638.64 215.17 638.48 215.1C638.31 215.03 638.14 215 637.96 215L587.72 215C587.54 215 587.37 215.03 587.2 215.1C587.04 215.17 586.89 215.27 586.76 215.39C586.64 215.52 586.54 215.67 586.47 215.83C586.4 216 586.37 216.17 586.37 216.35L586.37 233.45C586.37 233.62 586.41 233.79 586.48 233.95C586.54 234.11 586.64 234.26 586.77 234.38C586.89 234.5 587.03 234.6 587.19 234.67C587.35 234.73 587.53 234.77 587.7 234.77L637.94 234.77C638.12 234.77 638.29 234.74 638.46 234.67C638.62 234.6 638.77 234.5 638.89 234.37C639.02 234.25 639.12 234.1 639.19 233.94C639.26 233.77 639.29 233.6 639.29 233.42L639.31 216.35Z" />
	<path id="Layer" class="shp0" d="M267.15 44.24L251.63 54.08L261.05 36.94C260.39 36.41 259.69 35.94 258.95 35.53C258.21 35.12 257.44 34.77 256.64 34.48C255.84 34.2 255.02 33.98 254.19 33.83C253.36 33.68 252.52 33.6 251.67 33.59L251.42 33.59C251.15 33.59 250.88 33.59 250.61 33.58C250.34 33.58 250.07 33.56 249.8 33.54C249.54 33.52 249.27 33.5 249 33.46C248.73 33.43 248.47 33.39 248.2 33.35L242.94 36.68L245.19 32.58C244.26 32.26 243.37 31.86 242.5 31.4C241.64 30.93 240.81 30.4 240.03 29.81C239.25 29.22 238.52 28.56 237.85 27.85C237.17 27.15 236.55 26.39 235.99 25.58L226.58 31.58L232.52 20.77C227.02 14.16 219.6 10.11 211.43 10.11C201.64 10.11 192.92 15.93 187.29 25C186.46 26.36 185.46 27.6 184.3 28.69C183.15 29.78 181.85 30.71 180.45 31.47C179.05 32.22 177.56 32.78 176.01 33.14C174.47 33.5 172.88 33.66 171.29 33.6L170.77 33.6C159.96 33.6 151.2 45.86 151.2 60.97C151.2 76.08 160 88.35 170.81 88.35C171.4 88.35 171.99 88.31 172.58 88.23C173.16 88.16 173.75 88.05 174.32 87.91C174.89 87.76 175.46 87.58 176.01 87.37C176.56 87.16 177.1 86.92 177.62 86.64C179.45 85.75 181.38 85.06 183.36 84.58C185.35 84.1 187.38 83.84 189.41 83.8C191.45 83.76 193.49 83.94 195.49 84.34C197.49 84.74 199.44 85.36 201.31 86.18C202.89 86.89 204.54 87.43 206.23 87.79C207.92 88.15 209.65 88.33 211.38 88.33C213.11 88.33 214.84 88.15 216.53 87.79C218.22 87.43 219.87 86.89 221.45 86.18C223.3 85.38 225.24 84.77 227.22 84.38C229.2 83.99 231.22 83.82 233.24 83.85C235.25 83.89 237.26 84.15 239.23 84.62C241.19 85.09 243.1 85.76 244.92 86.64C245.44 86.91 245.97 87.16 246.52 87.37C247.07 87.58 247.62 87.76 248.19 87.9C248.76 88.04 249.34 88.15 249.92 88.23C250.5 88.3 251.08 88.34 251.67 88.35C262.48 88.35 271.24 76.09 271.24 60.97C271.26 59.52 271.18 58.07 271.02 56.63C270.85 55.19 270.59 53.76 270.25 52.35C269.9 50.94 269.47 49.55 268.95 48.2C268.44 46.84 267.83 45.52 267.15 44.24L267.15 44.24Z" />
	<path id="Layer" class="shp1" d="M237.9 84.29C236.5 84.02 235.08 83.86 233.65 83.8C232.23 83.75 230.8 83.79 229.38 83.95C227.96 84.1 226.55 84.36 225.17 84.72C223.79 85.09 222.44 85.55 221.13 86.11C219.55 86.82 217.9 87.35 216.21 87.71C214.52 88.07 212.79 88.25 211.06 88.25C209.34 88.25 207.61 88.07 205.92 87.71C204.23 87.35 202.58 86.82 201 86.11C199.13 85.29 197.18 84.68 195.18 84.28C193.18 83.88 191.14 83.7 189.1 83.74C187.07 83.78 185.04 84.04 183.05 84.51C181.07 84.99 179.14 85.68 177.31 86.57C176.79 86.85 176.25 87.09 175.7 87.31C175.14 87.52 174.58 87.7 174 87.84C173.43 87.99 172.85 88.09 172.26 88.17C171.67 88.24 171.08 88.28 170.49 88.28C160.89 88.28 152.9 78.61 151.24 65.85C151.72 65.5 152.18 65.13 152.62 64.73C153.06 64.34 153.49 63.93 153.89 63.49C154.29 63.06 154.67 62.6 155.03 62.13C155.39 61.66 155.73 61.17 156.04 60.67C161.67 51.6 170.39 45.78 180.18 45.78C189.97 45.78 198.58 51.53 204.18 60.51C205.01 61.86 206.02 63.1 207.17 64.19C208.32 65.28 209.61 66.22 211 66.99C212.39 67.75 213.88 68.34 215.42 68.72C216.96 69.11 218.54 69.29 220.13 69.27L220.38 69.27C228.06 69.22 234.68 75.35 237.9 84.29Z" />
	<path id="Layer" class="shp0" d="M814.13 17.03L806.37 21.94L811.07 13.39C810.74 13.13 810.39 12.89 810.02 12.69C809.65 12.48 809.27 12.31 808.87 12.17C808.47 12.02 808.06 11.91 807.65 11.84C807.23 11.77 806.81 11.73 806.39 11.72L806.27 11.72C806.14 11.72 806 11.72 805.87 11.72C805.73 11.71 805.6 11.71 805.46 11.7C805.33 11.69 805.19 11.67 805.06 11.66C804.93 11.64 804.79 11.62 804.66 11.6L802.04 13.27L803.16 11.27C802.7 11.11 802.25 10.91 801.82 10.68C801.39 10.45 800.98 10.19 800.59 9.89C800.2 9.6 799.84 9.27 799.5 8.92C799.16 8.57 798.85 8.19 798.57 7.79L793.88 10.79L796.88 5.4C796.26 4.59 795.56 3.85 794.78 3.2C793.99 2.54 793.14 1.98 792.24 1.51C791.33 1.04 790.37 0.68 789.39 0.43C788.4 0.17 787.39 0.03 786.37 0C781.49 0 777.14 2.91 774.37 7.43C773.95 8.11 773.45 8.73 772.87 9.27C772.3 9.82 771.65 10.28 770.95 10.66C770.25 11.03 769.5 11.31 768.73 11.49C767.96 11.67 767.16 11.75 766.37 11.72L766.11 11.72C760.72 11.72 756.35 17.83 756.35 25.37C756.35 32.91 760.72 39.02 766.11 39.02C766.41 39.02 766.7 39 766.99 38.96C767.29 38.93 767.58 38.87 767.86 38.8C768.15 38.73 768.43 38.64 768.7 38.54C768.98 38.43 769.25 38.31 769.51 38.17C770.42 37.73 771.38 37.38 772.37 37.14C773.36 36.91 774.37 36.78 775.39 36.76C776.41 36.74 777.42 36.83 778.42 37.03C779.42 37.23 780.39 37.53 781.32 37.94C782.11 38.29 782.93 38.56 783.78 38.74C784.62 38.92 785.48 39.01 786.34 39.01C787.21 39.01 788.07 38.92 788.91 38.74C789.76 38.56 790.58 38.29 791.37 37.94C792.29 37.54 793.26 37.24 794.25 37.05C795.24 36.85 796.24 36.76 797.25 36.78C798.26 36.8 799.26 36.93 800.24 37.16C801.22 37.4 802.17 37.73 803.08 38.17C803.34 38.3 803.6 38.42 803.88 38.53C804.15 38.63 804.43 38.72 804.71 38.79C804.99 38.86 805.28 38.91 805.57 38.95C805.86 38.98 806.15 39 806.44 39C811.83 39 816.2 32.89 816.2 25.35C816.2 24.63 816.16 23.91 816.08 23.19C815.99 22.47 815.86 21.76 815.69 21.06C815.51 20.36 815.29 19.67 815.03 19C814.77 18.32 814.47 17.67 814.13 17.03L814.13 17.03Z" />
	<path id="Layer" class="shp1" d="M799.54 37C798.84 36.87 798.13 36.79 797.42 36.76C796.71 36.73 796 36.76 795.29 36.84C794.58 36.91 793.88 37.04 793.19 37.22C792.5 37.4 791.83 37.63 791.17 37.91C790.78 38.08 790.38 38.24 789.97 38.37C789.56 38.5 789.15 38.61 788.73 38.7C788.31 38.79 787.88 38.86 787.45 38.9C787.03 38.95 786.6 38.97 786.17 38.97C785.74 38.97 785.31 38.94 784.88 38.9C784.46 38.85 784.03 38.78 783.61 38.69C783.19 38.6 782.78 38.49 782.37 38.35C781.96 38.22 781.56 38.07 781.17 37.89C780.24 37.48 779.26 37.17 778.27 36.98C777.27 36.78 776.25 36.69 775.23 36.71C774.22 36.73 773.21 36.86 772.22 37.09C771.23 37.33 770.27 37.68 769.35 38.12C769.09 38.26 768.82 38.38 768.55 38.49C768.27 38.59 767.99 38.68 767.7 38.75C767.42 38.82 767.13 38.88 766.83 38.91C766.54 38.95 766.25 38.97 765.95 38.97C761.16 38.97 757.18 34.15 756.35 27.78C756.59 27.61 756.82 27.42 757.04 27.22C757.26 27.03 757.47 26.82 757.67 26.61C757.88 26.39 758.07 26.16 758.25 25.93C758.43 25.69 758.59 25.45 758.75 25.2C761.55 20.68 765.9 17.77 770.75 17.77C775.6 17.77 779.93 20.64 782.75 25.12C783.17 25.8 783.67 26.42 784.25 26.96C784.83 27.51 785.47 27.98 786.17 28.36C786.87 28.74 787.62 29.03 788.39 29.22C789.16 29.41 789.95 29.5 790.75 29.49L790.88 29.49C794.63 29.49 797.93 32.55 799.54 37Z" />
	<path id="Layer" class="shp0" d="M619.82 106.96L610.72 112.73L616.24 102.73C615.85 102.42 615.44 102.14 615.01 101.89C614.58 101.65 614.12 101.44 613.66 101.27C613.19 101.1 612.71 100.97 612.22 100.88C611.73 100.79 611.24 100.74 610.74 100.73L610.59 100.73C610.43 100.73 610.27 100.73 610.12 100.73C609.96 100.72 609.8 100.71 609.64 100.7C609.48 100.69 609.33 100.67 609.17 100.66C609.01 100.64 608.86 100.62 608.7 100.59L605.62 102.59L606.94 100.18C606.4 99.99 605.87 99.76 605.37 99.49C604.86 99.22 604.37 98.91 603.92 98.56C603.46 98.21 603.03 97.83 602.63 97.42C602.23 97 601.87 96.56 601.54 96.09L596.02 99.59L599.51 93.25C598.78 92.3 597.94 91.44 597.02 90.68C596.1 89.92 595.1 89.26 594.03 88.73C592.96 88.19 591.84 87.77 590.68 87.47C589.52 87.18 588.33 87.02 587.14 86.99C581.4 86.99 576.28 90.41 572.98 95.73C572.49 96.52 571.9 97.24 571.23 97.88C570.55 98.51 569.79 99.05 568.97 99.49C568.16 99.93 567.28 100.26 566.38 100.46C565.47 100.67 564.55 100.76 563.62 100.73L563.31 100.73C556.97 100.73 551.84 107.92 551.84 116.73C551.84 125.54 556.97 132.78 563.31 132.78C563.66 132.78 564 132.76 564.35 132.71C564.69 132.67 565.03 132.61 565.37 132.52C565.71 132.44 566.04 132.34 566.36 132.21C566.69 132.09 567 131.94 567.31 131.78C568.39 131.26 569.51 130.85 570.68 130.57C571.84 130.29 573.03 130.14 574.23 130.12C575.42 130.09 576.62 130.2 577.79 130.44C578.96 130.67 580.1 131.03 581.2 131.51C582.13 131.92 583.09 132.24 584.09 132.45C585.08 132.66 586.09 132.76 587.11 132.76C588.12 132.76 589.13 132.66 590.12 132.45C591.12 132.24 592.08 131.92 593.01 131.51C594.1 131.04 595.23 130.69 596.39 130.46C597.56 130.23 598.74 130.12 599.92 130.15C601.11 130.17 602.29 130.32 603.44 130.6C604.59 130.87 605.71 131.27 606.78 131.78C607.09 131.94 607.4 132.08 607.73 132.21C608.05 132.33 608.38 132.44 608.72 132.52C609.06 132.61 609.4 132.67 609.74 132.71C610.09 132.76 610.43 132.78 610.78 132.78C617.12 132.78 622.26 125.6 622.26 116.73C622.26 115.88 622.21 115.03 622.11 114.19C622.01 113.35 621.86 112.52 621.65 111.69C621.45 110.87 621.19 110.06 620.88 109.27C620.58 108.48 620.22 107.71 619.82 106.96L619.82 106.96Z" />
	<path id="Layer" class="shp1" d="M602.67 130.45C601.85 130.29 601.01 130.2 600.18 130.17C599.34 130.13 598.5 130.16 597.67 130.25C596.84 130.34 596.01 130.5 595.2 130.71C594.39 130.92 593.6 131.19 592.83 131.52C591.9 131.93 590.94 132.25 589.94 132.46C588.95 132.67 587.94 132.77 586.92 132.77C585.91 132.77 584.9 132.67 583.91 132.46C582.91 132.25 581.95 131.93 581.02 131.52C579.92 131.04 578.78 130.68 577.61 130.45C576.44 130.21 575.24 130.1 574.05 130.13C572.85 130.15 571.66 130.3 570.5 130.58C569.33 130.86 568.21 131.27 567.13 131.79C566.82 131.95 566.51 132.1 566.18 132.22C565.86 132.34 565.53 132.45 565.19 132.53C564.85 132.62 564.51 132.68 564.17 132.72C563.82 132.77 563.48 132.79 563.13 132.79C557.5 132.79 552.81 127.12 551.84 119.64C552.12 119.44 552.39 119.22 552.65 119C552.91 118.77 553.15 118.53 553.39 118.28C553.63 118.02 553.85 117.76 554.06 117.49C554.27 117.22 554.47 116.93 554.65 116.64C557.95 111.32 563.07 107.91 568.81 107.91C574.55 107.91 579.61 111.28 582.91 116.54C583.4 117.33 583.99 118.06 584.66 118.7C585.34 119.34 586.09 119.89 586.91 120.34C587.72 120.79 588.59 121.13 589.5 121.36C590.4 121.58 591.33 121.69 592.26 121.68L592.37 121.68C596.89 121.61 600.78 125.21 602.67 130.45Z" />
	<path id="Layer" class="shp2" d="M947.25 569.2C947.25 570.92 947.25 572.64 947.14 574.34C947.08 575.99 946.98 577.65 946.85 579.29C946.72 580.94 946.55 582.59 946.35 584.23C946.15 585.88 945.92 587.51 945.66 589.15C945.39 590.78 945.09 592.41 944.76 594.03C938.19 626.14 919.22 651.1 895.39 658.47C894.21 658.84 893.01 659.16 891.8 659.44C890.6 659.72 889.38 659.95 888.15 660.14C886.93 660.32 885.7 660.46 884.46 660.56C883.23 660.65 881.99 660.7 880.75 660.7C844.02 660.7 814.25 619.7 814.25 569.2C814.25 518.7 844.02 477.7 880.75 477.7C915.2 477.7 943.54 513.76 946.91 559.95C947.14 562.99 947.25 566.08 947.25 569.2Z" />
	<path id="Layer" class="shp3" d="M947.14 574.35C947.08 576 946.98 577.66 946.85 579.3C946.72 580.95 946.55 582.6 946.35 584.24C946.15 585.89 945.92 587.52 945.66 589.16C945.39 590.79 945.09 592.42 944.76 594.04C938.19 626.15 919.22 651.11 895.39 658.48C876.94 649.99 863.25 618.17 863.25 580.21C863.25 535.75 882.05 499.71 905.25 499.71C924.72 499.71 941.1 525.13 945.85 559.62C946.51 564.35 946.94 569.29 947.14 574.35Z" />
	<path id="Layer" class="shp4" d="M613.25 366.7C613.25 366.7 793.25 329.7 888.25 363.7C888.25 363.7 902.25 370.7 888.25 382.7C888.25 382.7 901.49 396.7 878.37 401.7L786.52 407.35L613.25 389.7L613.25 366.7Z" />
	<path id="Layer" class="shp3" d="M644.75 371.35C644.75 371.35 798.86 339.67 880.2 368.78C880.2 368.78 892.2 374.78 880.2 385.05C880.2 385.05 891.53 397.05 871.74 401.32L793.1 406.15L644.75 391.06L644.75 371.35Z" />
	<path id="Layer" class="shp5" d="M820.25 426.7L808.25 402.7C808.25 402.7 813.51 378.42 770.75 371.28C768.38 360.69 757.64 352.7 744.75 352.7C732.17 352.7 721.65 360.3 718.93 370.5C712.79 371.03 706.25 371.75 699.25 372.7L689.47 425.14L688.25 422.7C688.25 422.7 694.46 394.02 638.49 389.83C639.25 388.91 639.92 387.93 640.51 386.9C641.1 385.87 641.6 384.79 642 383.68C642.41 382.56 642.72 381.41 642.93 380.24C643.13 379.07 643.24 377.89 643.25 376.7C643.25 363.99 631.38 353.7 616.75 353.7C602.12 353.7 590.25 363.99 590.25 376.7C590.26 377.99 590.39 379.28 590.63 380.55C590.88 381.81 591.24 383.06 591.72 384.26C592.19 385.46 592.78 386.61 593.46 387.71C594.15 388.8 594.93 389.83 595.81 390.78C590.58 391.28 585.06 391.92 579.25 392.7L568.25 451.7L619.25 458.7L700.25 446.7L693.08 432.35L739.25 438.69L820.25 426.7Z" />
	<path id="Layer" class="shp6" d="M820.25 426.7L808.25 402.7C808.25 402.7 813.51 378.42 770.75 371.28C768.38 360.69 757.64 352.7 744.75 352.7C732.17 352.7 721.65 360.3 718.93 370.5C712.79 371.03 706.25 371.75 699.25 372.7L689.47 425.14L688.25 422.7C688.25 422.7 694.46 394.02 638.49 389.83C639.25 388.91 639.92 387.93 640.51 386.9C641.1 385.87 641.6 384.79 642 383.68C642.41 382.56 642.72 381.41 642.93 380.24C643.13 379.07 643.24 377.89 643.25 376.7C643.25 363.99 631.38 353.7 616.75 353.7C602.12 353.7 590.25 363.99 590.25 376.7C590.26 377.99 590.39 379.28 590.63 380.55C590.88 381.81 591.24 383.06 591.72 384.26C592.19 385.46 592.78 386.61 593.46 387.71C594.15 388.8 594.93 389.83 595.81 390.78C590.58 391.28 585.06 391.92 579.25 392.7L568.25 451.7L619.25 458.7L700.25 446.7L693.08 432.35L739.25 438.69L820.25 426.7Z" />
	<path id="Layer" class="shp5" d="M648.23 373.58C648.23 373.58 640.23 328.7 677.23 327.7C714.23 326.7 702.23 392.7 702.23 392.7C702.23 392.7 730.23 398.7 732.23 409.7C734.23 420.7 635.23 423.7 635.23 423.7L648.23 373.58Z" />
	<path id="Layer" class="shp2" d="M583.25 610.7C583.25 663.7 543.85 706.7 495.25 706.7C446.65 706.7 407.25 663.7 407.25 610.7C407.25 557.7 447.14 506.2 495.75 506.2C544.36 506.2 583.25 557.68 583.25 610.7Z" />
	<path id="Layer" class="shp3" d="M495.25 695.69C456.54 695.69 425.25 659.49 425.25 614.7C425.25 569.91 456.54 533.71 495.25 533.71C533.96 533.71 565.25 569.91 565.25 614.7C565.25 659.49 533.96 695.69 495.25 695.69Z" />
	<path id="Layer" class="shp2" d="M108.25 697.69C59.59 697.69 20.25 654.78 20.25 601.69C20.25 548.6 59.59 505.69 108.25 505.69C156.91 505.69 196.25 548.6 196.25 601.69C196.25 654.78 156.91 697.69 108.25 697.69Z" />
	<path id="Layer" class="shp2" d="M258.25 372.7C258.25 372.7 217.25 374.7 219.25 396.7C221.25 418.7 254.25 402.7 254.25 402.7L258.25 372.7Z" />
	<path id="Layer" class="shp4" d="M599.37 409.35L616.25 296.7C616.25 296.7 620.25 282.7 566.25 282.7C566.25 282.7 393.25 271.7 349.25 289.7C349.25 289.7 298.25 308.7 227.25 406.7C227.25 406.7 592.37 415.35 599.37 409.35Z" />
	<path id="Layer" class="shp2" d="M593.25 291.7L562.25 414.7L542.81 414.23L450.81 411.99L245.62 406.99C245.05 397.27 342.22 296.7 342.22 296.7L593.25 291.7Z" />
	<path id="Layer" class="shp7" d="M450.84 411.99L459.22 379.59C459.22 379.59 451.22 334.7 488.22 333.7C525.22 332.7 513.22 398.7 513.22 398.7C513.22 398.7 538.72 404.17 542.78 414.23L450.84 411.99Z" />
	<path id="Layer" class="shp4" d="M947.75 562.2C941.75 504.2 904.25 491.7 904.25 491.7C868.25 489.7 844.25 626.7 844.25 626.7L567.25 651.7C567.25 651.7 576.75 535.2 509.75 516.2C442.75 497.2 425.25 633.7 422.25 652.7C419.25 671.7 18.25 650.7 7.25 642.7C-3.75 634.7 0.25 557.7 3.25 551.7C6.25 545.7 14.25 518.7 14.25 518.7C14.25 512.26 17.33 504.12 19.89 498.47C21.69 494.47 23.25 491.7 23.25 491.7C31.94 442.42 77.06 430.49 80.09 429.7L80.25 429.7C92.25 417.7 203.25 409.7 203.25 409.7L245.25 401.7L586.72 408.41L601.25 408.7L774.85 400.35L892.25 394.7C919.25 394.7 933.25 462.7 933.25 462.7C958.25 522.7 947.75 562.2 947.75 562.2Z" />
	<path id="Layer" class="shp3" d="M384.8 503.31C358.39 513.93 331.66 509.16 325.01 492.62C318.35 476.09 334.32 454.13 360.73 443.51C387.14 432.88 413.87 437.65 420.52 454.19C427.18 470.72 411.21 492.68 384.8 503.31Z" />
	<path id="Layer" class="shp0" d="M382.8 499.3C356.39 509.93 329.66 505.15 323.01 488.62C316.35 472.09 332.32 450.13 358.73 439.5C385.14 428.87 411.87 433.65 418.52 450.18C425.18 466.72 409.21 488.67 382.8 499.3Z" />
	<path id="Layer" class="shp3" d="M82.09 431.74C81.58 442.74 76.65 456.62 67.78 469.99C53.51 491.51 33.94 504.18 21.89 500.47C23.69 496.47 25.25 493.7 25.25 493.7C33.94 444.42 79.06 432.49 82.09 431.74Z" />
	<path id="Layer" class="shp0" d="M79.09 429.74C78.58 440.74 73.65 454.62 64.78 467.99C50.51 489.51 30.94 502.18 18.89 498.47C20.69 494.47 22.25 491.7 22.25 491.7C30.94 442.42 76.06 430.49 79.09 429.74Z" />
	<path id="Layer" class="shp2" d="M219.25 459.69L140.25 459.69L136.25 448.69L232.25 448.69L219.25 459.69L219.25 459.69Z" />
	<path id="Layer" class="shp2" d="M71.25 540.69L201.25 540.69L201.25 578.69L71.25 578.69L71.25 540.69Z" />
	<path id="Layer" class="shp3" d="M341.25 615.69C331.3 615.69 323.25 607.64 323.25 597.69C323.25 587.74 331.3 579.69 341.25 579.69C351.2 579.69 359.25 587.74 359.25 597.69C359.25 607.64 351.2 615.69 341.25 615.69Z" />
	<path id="Layer" class="shp0" d="M339.25 612.69C329.3 612.69 321.25 604.64 321.25 594.69C321.25 584.74 329.3 576.69 339.25 576.69C349.2 576.69 357.25 584.74 357.25 594.69C357.25 604.64 349.2 612.69 339.25 612.69Z" />
	<path id="Layer" class="shp3" d="M14.25 602.69C9.27 602.69 5.25 594.2 5.25 583.69C5.25 573.18 9.27 564.69 14.25 564.69C19.23 564.69 23.25 573.18 23.25 583.69C23.25 594.2 19.23 602.69 14.25 602.69Z" />
	<path id="Layer" class="shp0" d="M11.25 601.69C6.27 601.69 2.25 593.2 2.25 582.69C2.25 572.18 6.27 563.69 11.25 563.69C16.23 563.69 20.25 572.18 20.25 582.69C20.25 593.2 16.23 601.69 11.25 601.69Z" />
	<path id="Layer" class="shp2" d="M804.25 502.7C793.25 536.7 792.25 589.7 792.25 589.7L788.25 603.7L593.25 625.7C593.25 625.7 594.25 527.7 597.25 481.7C599.36 449.25 591.53 421.78 586.72 408.41L601.25 408.7L774.85 400.35C803.85 420.68 814.12 472.17 804.25 502.7Z" />
	<path id="Layer" class="shp0" d="M759.79 441.4C759.11 441.45 758.44 441.63 757.84 441.95C757.23 442.27 756.7 442.71 756.27 443.25C755.85 443.78 755.54 444.4 755.36 445.06C755.19 445.72 755.16 446.41 755.27 447.09C755.32 447.37 755.4 447.65 755.51 447.91C755.63 448.17 755.77 448.42 755.95 448.64C756.12 448.87 756.32 449.07 756.54 449.25C756.77 449.43 757.01 449.58 757.27 449.7C760.5 451.31 782 447.7 790.15 446.26C790.75 446.16 791.33 445.97 791.86 445.68C792.4 445.4 792.89 445.03 793.3 444.58C793.72 444.14 794.05 443.63 794.3 443.08C794.55 442.52 794.71 441.93 794.77 441.33C794.87 439.91 794.35 438.7 792.27 438.7L759.79 441.4Z" />
	<path id="Layer" class="shp2" d="M586.25 404.7C586.25 404.7 591.25 426.7 615.25 419.7L623.25 388.7L607.25 379.7L586.25 404.7Z" />
	<path id="Layer" class="shp2" d="M615.64 360.03C626.64 353.51 644.09 347.81 661.35 361.5C663.13 362.91 664.67 364.6 665.89 366.52C667.12 368.43 668.01 370.54 668.55 372.75C669.08 374.96 669.23 377.24 669.01 379.5C668.79 381.77 668.19 383.98 667.24 386.04C661.59 398.27 648.18 411.54 616.87 395.65C616.11 395.26 615.37 394.83 614.66 394.34C613.95 393.86 613.27 393.34 612.63 392.77C611.99 392.2 611.38 391.59 610.82 390.95C610.25 390.3 609.73 389.62 609.25 388.91L609.09 388.67C607.58 386.38 606.54 383.8 606.05 381.1C605.56 378.4 605.62 375.63 606.23 372.95C606.85 370.27 608 367.74 609.61 365.52C611.23 363.3 613.28 361.43 615.64 360.03Z" />
	<path id="Layer" class="shp0" d="M495.75 630.19C484.69 630.19 475.75 621.25 475.75 610.19C475.75 599.13 484.69 590.19 495.75 590.19C506.81 590.19 515.75 599.13 515.75 610.19C515.75 621.25 506.81 630.19 495.75 630.19Z" />
	<path id="Layer" class="shp0" d="M908.75 594.19C902.67 594.19 897.75 585.25 897.75 574.19C897.75 563.13 902.67 554.19 908.75 554.19C914.83 554.19 919.75 563.13 919.75 574.19C919.75 585.25 914.83 594.19 908.75 594.19Z" />
	<path id="Layer" class="shp2" d="M494.25 548.69L496.25 548.69C502.89 548.69 508.25 554.05 508.25 560.69L508.25 571.69C508.25 578.33 502.89 583.69 496.25 583.69L494.25 583.69C487.61 583.69 482.25 578.33 482.25 571.69L482.25 560.69C482.25 554.05 487.61 548.69 494.25 548.69Z" />
	<path id="Layer" class="shp2" d="M908.75 510.19L908.75 510.19C909.67 510.19 910.58 510.37 911.43 510.72C912.28 511.07 913.05 511.59 913.7 512.24C914.35 512.89 914.87 513.66 915.22 514.51C915.57 515.36 915.75 516.27 915.75 517.19L915.75 533.19C915.75 534.77 915.44 536.33 914.84 537.78C914.23 539.24 913.35 540.56 912.24 541.68C911.12 542.79 909.8 543.67 908.34 544.28C906.89 544.88 905.33 545.19 903.75 545.19L903.75 545.19C902.83 545.19 901.92 545.01 901.07 544.66C900.22 544.31 899.45 543.79 898.8 543.14C898.15 542.49 897.63 541.72 897.28 540.87C896.93 540.02 896.75 539.11 896.75 538.19L896.75 522.19C896.75 520.61 897.06 519.05 897.66 517.6C898.27 516.14 899.15 514.82 900.26 513.7C901.38 512.59 902.7 511.71 904.16 511.1C905.61 510.5 907.17 510.19 908.75 510.19L908.75 510.19Z" />
	<path id="Layer" class="shp2" d="M908.75 638.2L908.75 638.2C907.17 638.2 905.61 637.89 904.16 637.29C902.7 636.68 901.38 635.8 900.26 634.69C899.15 633.57 898.27 632.25 897.66 630.79C897.06 629.34 896.75 627.78 896.75 626.2L896.75 615.2C896.75 613.62 897.06 612.06 897.66 610.61C898.27 609.15 899.15 607.83 900.26 606.71C901.38 605.6 902.7 604.72 904.16 604.11C905.61 603.51 907.17 603.2 908.75 603.2L908.75 603.2C915.35 603.2 914.75 608.6 914.75 615.2L914.75 626.2C914.74 632.8 915.37 638.2 908.75 638.2Z" />
	<path id="Layer" class="shp2" d="M878.75 556.19L878.75 556.19C880.33 556.19 881.89 556.5 883.34 557.1C884.8 557.71 886.12 558.59 887.24 559.7C888.35 560.82 889.23 562.14 889.84 563.6C890.44 565.05 890.75 566.61 890.75 568.19L890.75 583.19C890.75 584.24 890.54 585.28 890.14 586.25C889.74 587.22 889.15 588.1 888.41 588.85C887.66 589.59 886.78 590.18 885.81 590.58C884.84 590.98 883.8 591.19 882.75 591.19L882.75 591.19C881.17 591.19 879.61 590.88 878.16 590.28C876.7 589.67 875.38 588.79 874.26 587.68C873.15 586.56 872.27 585.24 871.66 583.78C871.06 582.33 870.75 580.77 870.75 579.19L870.75 564.19C870.75 563.14 870.96 562.1 871.36 561.13C871.76 560.16 872.35 559.28 873.09 558.53C873.84 557.79 874.72 557.2 875.69 556.8C876.66 556.4 877.7 556.19 878.75 556.19Z" />
	<path id="Layer" class="shp2" d="M947.25 569.2C947.25 570.92 947.25 572.64 947.14 574.34C947.08 575.99 946.98 577.65 946.85 579.29C946.72 580.94 946.55 582.59 946.35 584.23C946.15 585.88 945.92 587.51 945.66 589.15C945.39 590.78 945.09 592.41 944.76 594.03C944.59 594.06 944.43 594.08 944.26 594.1C944.1 594.12 943.93 594.14 943.76 594.16C943.6 594.17 943.43 594.18 943.26 594.19C943.09 594.2 942.93 594.2 942.76 594.2C941.18 594.2 939.62 593.89 938.17 593.29C936.71 592.68 935.39 591.8 934.27 590.69C933.16 589.57 932.28 588.25 931.67 586.79C931.07 585.34 930.76 583.78 930.76 582.2L930.76 571.2C930.76 569.62 931.07 568.06 931.67 566.61C932.28 565.15 933.16 563.83 934.27 562.71C935.39 561.6 936.71 560.72 938.17 560.11C939.62 559.51 941.18 559.2 942.76 559.2C943.02 559.2 943.28 559.21 943.54 559.22C943.8 559.24 944.06 559.27 944.32 559.3C944.58 559.34 944.84 559.38 945.1 559.43C945.35 559.48 945.61 559.54 945.86 559.61C946.22 559.71 946.58 559.82 946.92 559.95C947.14 562.99 947.25 566.08 947.25 569.2Z" />
	<path id="Layer" class="shp2" d="M544.75 591.19L546.75 591.19C553.39 591.19 558.75 596.55 558.75 603.19L558.75 614.19C558.75 620.83 553.39 626.19 546.75 626.19L544.75 626.19C538.11 626.19 532.75 620.83 532.75 614.19L532.75 603.19C532.75 596.55 538.11 591.19 544.75 591.19Z" />
	<path id="Layer" class="shp2" d="M446.75 591.19L448.75 591.19C455.39 591.19 460.75 596.55 460.75 603.19L460.75 614.19C460.75 620.83 455.39 626.19 448.75 626.19L446.75 626.19C440.11 626.19 434.75 620.83 434.75 614.19L434.75 603.19C434.75 596.55 440.11 591.19 446.75 591.19Z" />
	<path id="Layer" class="shp2" d="M494.75 643.19L496.75 643.19C503.39 643.19 508.75 648.55 508.75 655.19L508.75 666.19C508.75 672.83 503.39 678.19 496.75 678.19L494.75 678.19C488.11 678.19 482.75 672.83 482.75 666.19L482.75 655.19C482.75 648.55 488.11 643.19 494.75 643.19Z" />
	<path id="Layer" class="shp8" d="M984.66 652.89C987.4 647.82 984.29 641.6 980.72 637.08C977.15 632.56 972.79 627.85 972.88 622.08C973.02 613.8 981.81 608.91 988.88 604.52C990.18 603.71 991.46 602.85 992.71 601.96C993.96 601.07 995.19 600.15 996.39 599.18C997.58 598.22 998.75 597.22 999.89 596.19C1001.03 595.16 1002.13 594.1 1003.21 593C1003.66 592.58 1004.09 592.14 1004.5 591.68C1004.91 591.22 1005.3 590.74 1005.67 590.25C1006.04 589.75 1006.38 589.24 1006.71 588.72C1007.03 588.2 1007.33 587.66 1007.61 587.11C1009.06 583.87 1009.02 580.18 1008.93 576.63C1008.63 564.81 1008.05 553 1007.18 541.2" />
	<path id="Layer" class="shp5" d="M1020.48 540.56C1020.43 539.48 1020.25 538.41 1019.93 537.38C1019.62 536.35 1019.17 535.36 1018.61 534.44C1018.05 533.52 1017.37 532.67 1016.6 531.92C1015.83 531.16 1014.97 530.51 1014.03 529.97L1011.14 535.69L1011.23 528.76C1010.89 528.66 1010.54 528.57 1010.18 528.5C1009.83 528.43 1009.48 528.37 1009.12 528.33C1008.76 528.29 1008.41 528.26 1008.05 528.25C1007.69 528.23 1007.33 528.23 1006.97 528.25C1001.75 528.49 997.19 531.86 995.42 536.77C993.65 541.69 995.01 547.19 998.87 550.71C1002.73 554.23 1008.34 555.07 1013.07 552.85C1017.79 550.63 1020.72 545.78 1020.48 540.56L1020.48 540.56Z" />
	<path id="Layer" class="shp5" d="M997.44 628.01C996.14 630.54 994.04 632.57 991.46 633.78C988.89 634.99 985.99 635.32 983.21 634.72C980.43 634.11 977.93 632.61 976.09 630.44C974.26 628.27 973.19 625.55 973.05 622.71C973.03 622.26 973.03 621.82 973.05 621.37C973.08 620.93 973.12 620.48 973.19 620.04C973.26 619.6 973.36 619.16 973.47 618.73C973.59 618.3 973.73 617.88 973.89 617.46C974.83 615.01 976.5 612.91 978.67 611.43C980.84 609.95 983.4 609.17 986.03 609.18C988.65 609.2 991.21 610.01 993.36 611.52C995.51 613.02 997.15 615.14 998.07 617.6L990 624.17L998.87 622.11C998.87 622.62 998.84 623.13 998.78 623.64C998.72 624.15 998.63 624.65 998.51 625.15C998.39 625.64 998.24 626.13 998.06 626.61C997.88 627.09 997.67 627.56 997.44 628.01L997.44 628.01Z" />
	<path id="Layer" class="shp5" d="M991.06 602.92C989.36 603 987.67 602.74 986.07 602.17C984.48 601.59 983.01 600.71 981.75 599.56C980.5 598.42 979.48 597.04 978.76 595.51C978.04 593.97 977.63 592.31 977.55 590.61C977.53 590.11 977.53 589.6 977.57 589.1C977.6 588.6 977.67 588.1 977.76 587.6C977.85 587.11 977.98 586.62 978.13 586.14C978.28 585.66 978.46 585.19 978.67 584.73C979.06 583.87 979.54 583.06 980.1 582.3C980.67 581.54 981.31 580.85 982.02 580.23C982.74 579.62 983.52 579.08 984.35 578.63C985.18 578.18 986.05 577.83 986.96 577.57L986.9 582.9L989.82 577.1L989.82 577.1C991.51 577.02 993.21 577.28 994.8 577.85C996.4 578.43 997.87 579.32 999.12 580.46C1000.37 581.6 1001.39 582.98 1002.11 584.52C1002.83 586.05 1003.24 587.72 1003.32 589.41C1003.34 589.78 1003.34 590.15 1003.33 590.53C1003.32 590.9 1003.29 591.27 1003.24 591.64C1003.19 592.01 1003.13 592.38 1003.05 592.74C1002.97 593.1 1002.88 593.46 1002.77 593.82C1002.38 595.08 1001.8 596.27 1001.05 597.36C1000.3 598.44 999.39 599.41 998.35 600.22C997.31 601.03 996.15 601.67 994.91 602.13C993.68 602.59 992.38 602.85 991.06 602.92Z" />
	<path id="Layer" class="shp5" d="M1022.43 582.05C1020.73 582.13 1019.04 581.87 1017.44 581.3C1015.85 580.72 1014.38 579.84 1013.12 578.69C1011.87 577.55 1010.85 576.17 1010.13 574.64C1009.41 573.1 1009 571.44 1008.92 569.74C1008.89 569.22 1008.9 568.69 1008.94 568.16C1008.97 567.64 1009.05 567.12 1009.15 566.6C1009.25 566.09 1009.39 565.58 1009.55 565.08C1009.72 564.58 1009.91 564.09 1010.14 563.62C1010.9 562.02 1011.97 560.59 1013.31 559.42C1014.64 558.25 1016.2 557.37 1017.89 556.83C1019.58 556.29 1021.36 556.1 1023.12 556.28C1024.89 556.46 1026.59 557 1028.14 557.87L1025.86 564.12L1030.55 559.61C1031.17 560.18 1031.74 560.81 1032.24 561.49C1032.73 562.17 1033.17 562.89 1033.52 563.66C1033.88 564.42 1034.16 565.22 1034.37 566.03C1034.57 566.85 1034.69 567.69 1034.73 568.53C1034.74 568.83 1034.75 569.13 1034.74 569.43C1034.74 569.73 1034.72 570.02 1034.69 570.32C1034.66 570.62 1034.63 570.92 1034.58 571.21C1034.53 571.51 1034.47 571.8 1034.4 572.09C1034.08 573.45 1033.55 574.75 1032.81 575.93C1032.08 577.12 1031.16 578.18 1030.08 579.08C1029.01 579.97 1027.8 580.68 1026.5 581.19C1025.2 581.69 1023.82 581.98 1022.43 582.05Z" />
	<path id="Layer" class="shp3" d="M1018.75 544C1015.75 544.33 1012.86 545.25 1009.87 545.44C1006.88 545.63 1003.59 544.91 1001.7 542.58C1001.48 542.24 1001.27 541.9 1001.06 541.56C1000.85 541.21 1000.64 540.87 1000.44 540.52C1000.24 540.17 1000.05 539.81 999.86 539.46C999.67 539.1 999.49 538.74 999.31 538.38C999.11 538.06 998.88 537.76 998.64 537.47C998.4 537.18 998.15 536.9 997.87 536.65C997.6 536.39 997.31 536.15 997.01 535.92C996.7 535.7 996.39 535.49 996.06 535.31C995.81 535.81 995.59 536.32 995.4 536.84C995.21 537.36 995.06 537.9 994.94 538.44C994.82 538.99 994.74 539.54 994.7 540.09C994.65 540.65 994.64 541.2 994.67 541.76C994.81 544.9 996.09 547.88 998.27 550.14C1000.45 552.4 1003.37 553.8 1006.5 554.06C1009.63 554.32 1012.75 553.43 1015.27 551.56C1017.8 549.69 1019.55 546.96 1020.21 543.89C1019.72 543.91 1019.23 543.95 1018.75 544Z" />
	<path id="Layer" class="shp3" d="M1022.43 582.05C1020.73 582.13 1019.04 581.87 1017.44 581.3C1015.85 580.72 1014.38 579.84 1013.12 578.69C1011.87 577.55 1010.85 576.17 1010.13 574.64C1009.41 573.1 1009 571.44 1008.92 569.74C1008.89 569.22 1008.9 568.69 1008.94 568.16C1008.97 567.64 1009.05 567.12 1009.15 566.6C1009.25 566.09 1009.39 565.58 1009.55 565.08C1009.72 564.58 1009.91 564.09 1010.14 563.62C1010.4 563.79 1010.64 563.98 1010.88 564.17C1011.12 564.37 1011.35 564.58 1011.57 564.79C1011.78 565.01 1011.99 565.24 1012.19 565.48C1012.38 565.72 1012.57 565.96 1012.74 566.22C1013.66 567.61 1014.21 569.22 1015.3 570.49C1017.3 572.85 1020.75 573.63 1023.87 573.49C1026.99 573.35 1029.99 572.49 1033.1 572.18C1033.53 572.18 1033.97 572.11 1034.4 572.1C1034.08 573.46 1033.54 574.76 1032.81 575.94C1032.08 577.13 1031.15 578.19 1030.08 579.08C1029.01 579.97 1027.8 580.68 1026.5 581.19C1025.2 581.69 1023.82 581.98 1022.43 582.05Z" />
	<path id="Layer" class="shp3" d="M991.06 602.92C989.36 603 987.67 602.74 986.07 602.17C984.48 601.59 983.01 600.71 981.75 599.56C980.5 598.42 979.48 597.04 978.76 595.51C978.04 593.97 977.63 592.31 977.55 590.61C977.53 590.11 977.53 589.6 977.57 589.1C977.6 588.6 977.67 588.1 977.76 587.6C977.85 587.11 977.98 586.62 978.13 586.14C978.28 585.66 978.46 585.19 978.67 584.73C978.93 584.91 979.18 585.09 979.43 585.29C979.67 585.49 979.91 585.7 980.14 585.92C980.36 586.14 980.58 586.37 980.79 586.61C980.99 586.85 981.19 587.09 981.37 587.35C982.37 588.77 983 590.35 984.17 591.71C986.35 594.14 990.02 594.99 993.32 594.92C996.62 594.85 999.6 594.06 1002.78 593.82C1002.39 595.08 1001.81 596.28 1001.06 597.36C1000.31 598.45 999.4 599.41 998.36 600.22C997.31 601.03 996.15 601.67 994.92 602.13C993.68 602.59 992.38 602.86 991.06 602.92L991.06 602.92Z" />
	<path id="Layer" class="shp3" d="M997.44 628.01C996.14 630.54 994.04 632.57 991.46 633.78C988.89 634.99 985.99 635.32 983.21 634.72C980.43 634.11 977.93 632.61 976.09 630.44C974.26 628.27 973.19 625.55 973.05 622.71C973.03 622.26 973.03 621.82 973.05 621.37C973.08 620.93 973.12 620.48 973.19 620.04C973.26 619.6 973.36 619.16 973.47 618.73C973.59 618.3 973.73 617.88 973.89 617.46C974.16 617.63 974.41 617.82 974.67 618.01C974.92 618.21 975.16 618.41 975.4 618.62C975.63 618.83 975.86 619.05 976.08 619.28C976.3 619.51 976.52 619.75 976.72 619.99C977.95 621.49 978.72 623.19 980.18 624.58C982.82 627.18 987.09 628.25 990.88 628.35C991.43 628.35 991.98 628.35 992.52 628.34C993.07 628.32 993.62 628.3 994.16 628.27C994.71 628.25 995.26 628.21 995.8 628.17C996.35 628.12 996.9 628.07 997.44 628.01Z" />
	<path id="Layer" class="shp9" d="M965.18 647.05C965.18 647.05 975.37 646.74 978.45 644.55C981.53 642.36 994.13 639.75 994.9 643.26C995.67 646.77 1010.22 660.72 998.71 660.81C987.2 660.9 971.96 659.02 968.89 657.15C965.82 655.28 965.18 647.05 965.18 647.05Z" />
	<path id="Layer" class="shp6" d="M998.91 659.59C987.4 659.68 972.16 657.79 969.09 655.93C966.76 654.5 965.83 649.4 965.52 647.04L965.18 647.04C965.18 647.04 965.82 655.27 968.89 657.14C971.96 659.01 987.2 660.89 998.71 660.8C1002.03 660.8 1003.18 659.59 1003.12 657.8C1002.66 658.91 1001.37 659.57 998.91 659.59Z" />
</svg>